<svg width="159" height="159" viewBox="0 0 159 159" fill="none" xmlns="http://www.w3.org/2000/svg">
<g filter="url(#filter0_d_2722_124)">
<circle cx="79.707" cy="79.2422" r="63.9961" fill="url(#paint0_linear_2722_124)"/>
</g>
<path d="M114.703 107.243V114.242H44.7031V107.243H56.3698V103.744C54.8241 103.738 53.3431 102.999 52.2501 101.688C51.1571 100.376 50.5411 98.5993 50.5365 96.7448V61.7501C50.5411 59.8955 51.1571 58.1185 52.2501 56.8072C53.3431 55.4958 54.8241 54.7566 56.3698 54.7511H62.1915V61.7501H56.3698V96.7448H103.036V61.7501H97.1915V54.7511H103.036C104.582 54.7566 106.063 55.4958 107.156 56.8072C108.249 58.1185 108.865 59.8955 108.87 61.7501L108.841 96.7448C108.843 98.5958 108.233 100.372 107.145 101.685C106.057 102.997 104.579 103.737 103.036 103.744V107.243H114.703ZM88.4531 86.2044L79.7031 75.706L70.9531 86.2044H76.7865V93.2383H82.6198V86.2044H88.4531ZM91.3552 58.2401C91.3552 61.0086 90.671 63.715 89.389 66.0169C88.1071 68.3188 86.285 70.113 84.1532 71.1725C82.0214 72.2319 79.6756 72.5091 77.4125 71.969C75.1494 71.4289 73.0706 70.0957 71.439 68.1381C69.8073 66.1805 68.6962 63.6863 68.246 60.9709C67.7959 58.2556 68.0269 55.4411 68.9099 52.8833C69.793 50.3255 71.2883 48.1394 73.2069 46.6013C75.1255 45.0632 77.3811 44.2422 79.6885 44.2422C82.7827 44.2422 85.7502 45.717 87.9381 48.3421C90.126 50.9672 91.3552 54.5276 91.3552 58.2401ZM78.5219 68.5985V66.6388C78.2155 66.6388 77.912 66.5664 77.6289 66.4257C77.3459 66.285 77.0886 66.0788 76.872 65.8189C76.6553 65.5589 76.4834 65.2503 76.3662 64.9106C76.2489 64.5709 76.1885 64.2069 76.1885 63.8392V62.4395L71.099 56.3329C70.8719 57.7285 70.8868 59.1653 71.1428 60.5538C71.3987 61.9422 71.8901 63.2526 72.5865 64.4032C73.2828 65.5539 74.1692 66.5202 75.1903 67.2419C76.2114 67.9637 77.3455 68.4255 78.5219 68.5985ZM86.2744 65.0746C87.181 63.8372 87.8301 62.3596 88.1685 60.7629C88.5068 59.1662 88.5247 57.4959 88.2207 55.8893C87.9166 54.2827 87.2994 52.7855 86.4196 51.5207C85.5397 50.2558 84.4224 49.2593 83.1594 48.613C83.1246 49.3197 82.8672 49.984 82.4393 50.4713C82.0115 50.9587 81.4452 51.2327 80.8552 51.2376H78.5219V54.0372C78.5219 54.221 78.4917 54.4031 78.4331 54.5729C78.3744 54.7427 78.2885 54.897 78.1802 55.027C78.0718 55.157 77.9432 55.2601 77.8017 55.3305C77.6601 55.4008 77.5084 55.437 77.3552 55.437H75.0219V58.2366H82.0219C82.3313 58.2366 82.628 58.3841 82.8468 58.6466C83.0656 58.9091 83.1885 59.2651 83.1885 59.6364V63.8357H84.3552C84.7355 63.8362 85.1097 63.9496 85.4446 64.1657C85.7794 64.3819 86.0645 64.6941 86.2744 65.0746Z" fill="white"/>
<defs>
<filter id="filter0_d_2722_124" x="0.710938" y="0.246094" width="157.992" height="157.992" filterUnits="userSpaceOnUse" color-interpolation-filters="sRGB">
<feFlood flood-opacity="0" result="BackgroundImageFix"/>
<feColorMatrix in="SourceAlpha" type="matrix" values="0 0 0 0 0 0 0 0 0 0 0 0 0 0 0 0 0 0 127 0" result="hardAlpha"/>
<feOffset/>
<feGaussianBlur stdDeviation="7.5"/>
<feComposite in2="hardAlpha" operator="out"/>
<feColorMatrix type="matrix" values="0 0 0 0 0.129412 0 0 0 0 0.611765 0 0 0 0 0.839216 0 0 0 1 0"/>
<feBlend mode="normal" in2="BackgroundImageFix" result="effect1_dropShadow_2722_124"/>
<feBlend mode="normal" in="SourceGraphic" in2="effect1_dropShadow_2722_124" result="shape"/>
</filter>
<linearGradient id="paint0_linear_2722_124" x1="79.707" y1="15.2461" x2="79.707" y2="149.177" gradientUnits="userSpaceOnUse">
<stop stop-color="#219CD6"/>
<stop offset="1" stop-color="#115270"/>
</linearGradient>
</defs>
</svg>
