<svg width="550" height="471" viewBox="0 0 550 471" fill="none" xmlns="http://www.w3.org/2000/svg">
<circle cx="269.633" cy="269.072" r="199.445" stroke="white" stroke-width="3" stroke-dasharray="8 8"/>
<g filter="url(#filter0_d_2758_91)">
<circle cx="269.637" cy="79.9023" r="63.9961" fill="url(#paint0_linear_2758_91)"/>
</g>
<path d="M251.492 74.381C253.448 74.1199 255.404 74.7872 256.79 76.1653L260.293 79.6467L263.606 76.3683L258.819 71.6249C258.074 70.8851 258.074 69.6811 258.819 68.9413C259.563 68.2015 260.774 68.2015 261.519 68.9413L266.306 73.6992L269.619 70.4209L266.101 66.925C264.715 65.5469 264.044 63.5886 264.306 61.6593C264.89 57.2495 263.474 52.6366 260.074 49.2422C256.6 45.7898 251.842 44.3972 247.333 45.0645C246.618 45.166 246.326 46.0509 246.836 46.5586L251.346 51.0409C253.492 53.1733 253.492 56.6257 251.346 58.7436L248.573 61.4997C246.428 63.6321 242.954 63.6321 240.823 61.4997L236.299 57.0174C235.788 56.5097 234.913 56.7998 234.796 57.5106C234.125 61.9929 235.526 66.7219 238.999 70.1743C242.414 73.5542 247.055 74.9613 251.492 74.381Z" fill="white"/>
<path d="M279.545 80.2852L276.232 83.5635L295.905 103.118C296.65 103.857 296.65 105.061 295.905 105.801C295.161 106.541 293.95 106.541 293.205 105.801L273.532 86.2471L270.219 89.5255L290.491 109.674C293.059 112.227 297.219 112.213 299.787 109.66C302.356 107.107 302.356 102.972 299.802 100.419L279.545 80.2852Z" fill="white"/>
<path d="M287.15 67.2283H295.892L304.635 49.8646L300.271 45.5273L282.786 54.2019V62.891L259.026 86.4342L254.75 82.1984L237.529 99.3155C233.938 102.884 233.938 108.657 237.529 112.226C241.119 115.794 246.928 115.794 250.518 112.226L267.739 95.1087L263.376 90.7714L287.15 67.2283Z" fill="white"/>
<path d="M246.987 170.238H241.427L240.507 172.898H237.567L242.587 158.918H245.847L250.867 172.898H247.907L246.987 170.238ZM246.227 167.998L244.207 162.158L242.187 167.998H246.227ZM252.023 167.318C252.023 166.198 252.243 165.205 252.683 164.338C253.137 163.472 253.75 162.805 254.523 162.338C255.297 161.872 256.157 161.638 257.103 161.638C257.823 161.638 258.51 161.798 259.163 162.118C259.817 162.425 260.337 162.838 260.723 163.358V158.098H263.563V172.898H260.723V171.258C260.377 171.805 259.89 172.245 259.263 172.578C258.637 172.912 257.91 173.078 257.083 173.078C256.15 173.078 255.297 172.838 254.523 172.358C253.75 171.878 253.137 171.205 252.683 170.338C252.243 169.458 252.023 168.452 252.023 167.318ZM260.743 167.358C260.743 166.678 260.61 166.098 260.343 165.618C260.077 165.125 259.717 164.752 259.263 164.498C258.81 164.232 258.323 164.098 257.803 164.098C257.283 164.098 256.803 164.225 256.363 164.478C255.923 164.732 255.563 165.105 255.283 165.598C255.017 166.078 254.883 166.652 254.883 167.318C254.883 167.985 255.017 168.572 255.283 169.078C255.563 169.572 255.923 169.952 256.363 170.218C256.817 170.485 257.297 170.618 257.803 170.618C258.323 170.618 258.81 170.492 259.263 170.238C259.717 169.972 260.077 169.598 260.343 169.118C260.61 168.625 260.743 168.038 260.743 167.358ZM267.718 160.498C267.211 160.498 266.791 160.345 266.458 160.038C266.138 159.718 265.978 159.325 265.978 158.858C265.978 158.392 266.138 158.005 266.458 157.698C266.791 157.378 267.211 157.218 267.718 157.218C268.211 157.218 268.618 157.378 268.938 157.698C269.258 158.005 269.418 158.392 269.418 158.858C269.418 159.325 269.258 159.718 268.938 160.038C268.618 160.345 268.211 160.498 267.718 160.498ZM269.098 174.718C269.098 175.945 268.791 176.825 268.178 177.358C267.578 177.905 266.711 178.178 265.578 178.178H264.338V175.798H265.138C265.565 175.798 265.865 175.712 266.038 175.538C266.211 175.378 266.298 175.112 266.298 174.738V161.818H269.098V174.718ZM282.324 161.818V172.898H279.504V171.498C279.144 171.978 278.671 172.358 278.084 172.638C277.511 172.905 276.884 173.038 276.204 173.038C275.338 173.038 274.571 172.858 273.904 172.498C273.238 172.125 272.711 171.585 272.324 170.878C271.951 170.158 271.764 169.305 271.764 168.318V161.818H274.564V167.918C274.564 168.798 274.784 169.478 275.224 169.958C275.664 170.425 276.264 170.658 277.024 170.658C277.798 170.658 278.404 170.425 278.844 169.958C279.284 169.478 279.504 168.798 279.504 167.918V161.818H282.324ZM289.327 173.078C288.42 173.078 287.607 172.918 286.887 172.598C286.167 172.265 285.594 171.818 285.167 171.258C284.754 170.698 284.527 170.078 284.487 169.398H287.307C287.36 169.825 287.567 170.178 287.927 170.458C288.3 170.738 288.76 170.878 289.307 170.878C289.84 170.878 290.254 170.772 290.547 170.558C290.854 170.345 291.007 170.072 291.007 169.738C291.007 169.378 290.82 169.112 290.447 168.938C290.087 168.752 289.507 168.552 288.707 168.338C287.88 168.138 287.2 167.932 286.667 167.718C286.147 167.505 285.694 167.178 285.307 166.738C284.934 166.298 284.747 165.705 284.747 164.958C284.747 164.345 284.92 163.785 285.267 163.278C285.627 162.772 286.134 162.372 286.787 162.078C287.454 161.785 288.234 161.638 289.127 161.638C290.447 161.638 291.5 161.972 292.287 162.638C293.074 163.292 293.507 164.178 293.587 165.298H290.907C290.867 164.858 290.68 164.512 290.347 164.258C290.027 163.992 289.594 163.858 289.047 163.858C288.54 163.858 288.147 163.952 287.867 164.138C287.6 164.325 287.467 164.585 287.467 164.918C287.467 165.292 287.654 165.578 288.027 165.778C288.4 165.965 288.98 166.158 289.767 166.358C290.567 166.558 291.227 166.765 291.747 166.978C292.267 167.192 292.714 167.525 293.087 167.978C293.474 168.418 293.674 169.005 293.687 169.738C293.687 170.378 293.507 170.952 293.147 171.458C292.8 171.965 292.294 172.365 291.627 172.658C290.974 172.938 290.207 173.078 289.327 173.078ZM299.245 164.118V169.478C299.245 169.852 299.332 170.125 299.505 170.298C299.692 170.458 299.999 170.538 300.425 170.538H301.725V172.898H299.965C297.605 172.898 296.425 171.752 296.425 169.458V164.118H295.105V161.818H296.425V159.078H299.245V161.818H301.725V164.118H299.245Z" fill="white"/>
<g filter="url(#filter1_d_2758_91)">
<circle cx="79.5039" cy="349.068" r="63.9961" fill="url(#paint1_linear_2758_91)"/>
</g>
<path d="M114.5 377.069V384.068H44.5V377.069H56.1667V373.57C54.621 373.564 53.1399 372.825 52.047 371.514C50.954 370.203 50.3379 368.426 50.3333 366.571V331.576C50.3379 329.722 50.954 327.945 52.047 326.633C53.1399 325.322 54.621 324.583 56.1667 324.577H61.9883V331.576H56.1667V366.571H102.833V331.576H96.9883V324.577H102.833C104.379 324.583 105.86 325.322 106.953 326.633C108.046 327.945 108.662 329.722 108.667 331.576L108.638 366.571C108.64 368.422 108.03 370.199 106.942 371.511C105.854 372.823 104.376 373.563 102.833 373.57V377.069H114.5ZM88.25 356.031L79.5 345.532L70.75 356.031H76.5833V363.065H82.4167V356.031H88.25ZM91.1521 328.066C91.1521 330.835 90.4678 333.541 89.1859 335.843C87.9039 338.145 86.0819 339.939 83.9501 340.999C81.8183 342.058 79.4725 342.335 77.2094 341.795C74.9463 341.255 72.8675 339.922 71.2358 337.964C69.6042 336.007 68.4931 333.512 68.0429 330.797C67.5928 328.082 67.8238 325.267 68.7068 322.709C69.5898 320.152 71.0852 317.966 73.0038 316.427C74.9223 314.889 77.178 314.068 79.4854 314.068C82.5796 314.068 85.5471 315.543 87.735 318.168C89.9229 320.793 91.1521 324.354 91.1521 328.066ZM78.3187 338.425V336.465C78.0123 336.465 77.7089 336.393 77.4258 336.252C77.1427 336.111 76.8855 335.905 76.6688 335.645C76.4522 335.385 76.2803 335.076 76.163 334.737C76.0458 334.397 75.9854 334.033 75.9854 333.665V332.266L70.8958 326.159C70.6688 327.555 70.6837 328.991 70.9396 330.38C71.1955 331.768 71.687 333.079 72.3833 334.229C73.0797 335.38 73.966 336.346 74.9872 337.068C76.0083 337.79 77.1424 338.252 78.3187 338.425ZM86.0712 334.901C86.9779 333.663 87.627 332.186 87.9653 330.589C88.3037 328.992 88.3216 327.322 88.0175 325.716C87.7135 324.109 87.0963 322.612 86.2164 321.347C85.3366 320.082 84.2193 319.085 82.9562 318.439C82.9215 319.146 82.6641 319.81 82.2362 320.298C81.8083 320.785 81.242 321.059 80.6521 321.064H78.3187V323.863C78.3187 324.047 78.2886 324.229 78.2299 324.399C78.1713 324.569 78.0854 324.723 77.977 324.853C77.8687 324.983 77.7401 325.086 77.5985 325.157C77.457 325.227 77.3053 325.263 77.1521 325.263H74.8187V328.063H81.8188C82.1282 328.063 82.4249 328.21 82.6437 328.473C82.8625 328.735 82.9854 329.091 82.9854 329.463V333.662H84.1521C84.5323 333.662 84.9066 333.776 85.2414 333.992C85.5763 334.208 85.8614 334.52 86.0712 334.901Z" fill="white"/>
<path d="M50.4084 428.104C51.8751 428.104 53.1618 428.391 54.2684 428.964C55.3884 429.538 56.2484 430.358 56.8484 431.424C57.4618 432.478 57.7684 433.704 57.7684 435.104C57.7684 436.504 57.4618 437.731 56.8484 438.784C56.2484 439.824 55.3884 440.631 54.2684 441.204C53.1618 441.778 51.8751 442.064 50.4084 442.064H45.5284V428.104H50.4084ZM50.3084 439.684C51.7751 439.684 52.9084 439.284 53.7084 438.484C54.5084 437.684 54.9084 436.558 54.9084 435.104C54.9084 433.651 54.5084 432.518 53.7084 431.704C52.9084 430.878 51.7751 430.464 50.3084 430.464H48.3284V439.684H50.3084ZM70.1644 436.284C70.1644 436.684 70.1377 437.044 70.0844 437.364H61.9844C62.051 438.164 62.331 438.791 62.8244 439.244C63.3177 439.698 63.9244 439.924 64.6444 439.924C65.6844 439.924 66.4244 439.478 66.8644 438.584H69.8844C69.5644 439.651 68.951 440.531 68.0444 441.224C67.1377 441.904 66.0244 442.244 64.7044 442.244C63.6377 442.244 62.6777 442.011 61.8244 441.544C60.9844 441.064 60.3244 440.391 59.8444 439.524C59.3777 438.658 59.1444 437.658 59.1444 436.524C59.1444 435.378 59.3777 434.371 59.8444 433.504C60.311 432.638 60.9644 431.971 61.8044 431.504C62.6444 431.038 63.611 430.804 64.7044 430.804C65.7577 430.804 66.6977 431.031 67.5244 431.484C68.3644 431.938 69.011 432.584 69.4644 433.424C69.931 434.251 70.1644 435.204 70.1644 436.284ZM67.2644 435.484C67.251 434.764 66.991 434.191 66.4844 433.764C65.9777 433.324 65.3577 433.104 64.6244 433.104C63.931 433.104 63.3444 433.318 62.8644 433.744C62.3977 434.158 62.111 434.738 62.0044 435.484H67.2644ZM75.0081 432.584C75.3681 432.078 75.8615 431.658 76.4881 431.324C77.1281 430.978 77.8548 430.804 78.6681 430.804C79.6148 430.804 80.4681 431.038 81.2281 431.504C82.0015 431.971 82.6081 432.638 83.0481 433.504C83.5015 434.358 83.7281 435.351 83.7281 436.484C83.7281 437.618 83.5015 438.624 83.0481 439.504C82.6081 440.371 82.0015 441.044 81.2281 441.524C80.4681 442.004 79.6148 442.244 78.6681 442.244C77.8548 442.244 77.1348 442.078 76.5081 441.744C75.8948 441.411 75.3948 440.991 75.0081 440.484V447.344H72.2081V430.984H75.0081V432.584ZM80.8681 436.484C80.8681 435.818 80.7281 435.244 80.4481 434.764C80.1815 434.271 79.8215 433.898 79.3681 433.644C78.9281 433.391 78.4481 433.264 77.9281 433.264C77.4215 433.264 76.9415 433.398 76.4881 433.664C76.0481 433.918 75.6881 434.291 75.4081 434.784C75.1415 435.278 75.0081 435.858 75.0081 436.524C75.0081 437.191 75.1415 437.771 75.4081 438.264C75.6881 438.758 76.0481 439.138 76.4881 439.404C76.9415 439.658 77.4215 439.784 77.9281 439.784C78.4481 439.784 78.9281 439.651 79.3681 439.384C79.8215 439.118 80.1815 438.738 80.4481 438.244C80.7281 437.751 80.8681 437.164 80.8681 436.484ZM88.5628 427.264V442.064H85.7628V427.264H88.5628ZM96.2492 442.244C95.1826 442.244 94.2226 442.011 93.3692 441.544C92.5159 441.064 91.8426 440.391 91.3492 439.524C90.8692 438.658 90.6292 437.658 90.6292 436.524C90.6292 435.391 90.8759 434.391 91.3692 433.524C91.8759 432.658 92.5626 431.991 93.4292 431.524C94.2959 431.044 95.2626 430.804 96.3292 430.804C97.3959 430.804 98.3626 431.044 99.2292 431.524C100.096 431.991 100.776 432.658 101.269 433.524C101.776 434.391 102.029 435.391 102.029 436.524C102.029 437.658 101.769 438.658 101.249 439.524C100.743 440.391 100.049 441.064 99.1692 441.544C98.3026 442.011 97.3292 442.244 96.2492 442.244ZM96.2492 439.804C96.7559 439.804 97.2292 439.684 97.6692 439.444C98.1226 439.191 98.4826 438.818 98.7492 438.324C99.0159 437.831 99.1492 437.231 99.1492 436.524C99.1492 435.471 98.8692 434.664 98.3092 434.104C97.7626 433.531 97.0892 433.244 96.2892 433.244C95.4892 433.244 94.8159 433.531 94.2692 434.104C93.7359 434.664 93.4692 435.471 93.4692 436.524C93.4692 437.578 93.7292 438.391 94.2492 438.964C94.7826 439.524 95.4492 439.804 96.2492 439.804ZM114.683 430.984L107.823 447.304H104.843L107.243 441.784L102.803 430.984H105.943L108.803 438.724L111.703 430.984H114.683Z" fill="white"/>
<g filter="url(#filter2_d_2758_91)">
<circle cx="470.574" cy="349.068" r="63.9961" fill="url(#paint2_linear_2758_91)"/>
</g>
<path d="M511.741 341.571C514.084 343.685 515.4 346.549 515.398 349.535C515.397 352.521 514.079 355.385 511.733 357.497L484.038 382.384C483.015 383.302 481.755 383.978 480.371 384.351L463.679 388.865C463 389.049 462.278 389.062 461.592 388.904C460.905 388.745 460.28 388.42 459.783 387.965C459.287 387.509 458.938 386.94 458.775 386.32C458.612 385.699 458.641 385.049 458.858 384.442L464.153 369.647C464.581 368.457 465.32 367.372 466.3 366.487L494.034 341.567C495.197 340.521 496.578 339.692 498.097 339.126C499.616 338.56 501.245 338.27 502.889 338.27C504.533 338.271 506.161 338.563 507.68 339.13C509.199 339.697 510.579 340.528 511.741 341.574M498.155 345.284L470.421 370.2C470.093 370.494 469.848 370.856 469.706 371.253L465.545 382.881L478.695 379.329C479.156 379.204 479.576 378.978 479.916 378.672L507.608 353.787C508.862 352.659 509.566 351.129 509.567 349.533C509.567 347.938 508.863 346.407 507.61 345.279C506.356 344.15 504.656 343.516 502.883 343.515C501.11 343.515 499.409 344.149 498.155 345.277M465.421 320.312L465.615 320.68L478.264 349.546L473.765 353.588L470.888 347.013H454.896L451.027 355.831C450.769 356.422 450.281 356.908 449.655 357.2C449.029 357.493 448.306 357.57 447.621 357.42L447.24 357.311C446.585 357.078 446.046 356.638 445.723 356.075C445.4 355.511 445.315 354.862 445.483 354.246L445.599 353.903L460.195 320.676C460.396 320.218 460.736 319.82 461.176 319.527C461.616 319.235 462.138 319.059 462.684 319.021C463.229 318.984 463.775 319.084 464.26 319.313C464.745 319.541 465.148 319.887 465.425 320.312M462.905 328.788L457.201 341.763H468.586L462.905 328.788Z" fill="white"/>
<path d="M451.598 442.204C450.625 442.204 449.745 442.038 448.958 441.704C448.185 441.371 447.572 440.891 447.118 440.264C446.665 439.638 446.432 438.898 446.418 438.044H449.418C449.458 438.618 449.658 439.071 450.018 439.404C450.392 439.738 450.898 439.904 451.538 439.904C452.192 439.904 452.705 439.751 453.078 439.444C453.452 439.124 453.638 438.711 453.638 438.204C453.638 437.791 453.512 437.451 453.258 437.184C453.005 436.918 452.685 436.711 452.298 436.564C451.925 436.404 451.405 436.231 450.738 436.044C449.832 435.778 449.092 435.518 448.518 435.264C447.958 434.998 447.472 434.604 447.058 434.084C446.658 433.551 446.458 432.844 446.458 431.964C446.458 431.138 446.665 430.418 447.078 429.804C447.492 429.191 448.072 428.724 448.818 428.404C449.565 428.071 450.418 427.904 451.378 427.904C452.818 427.904 453.985 428.258 454.878 428.964C455.785 429.658 456.285 430.631 456.378 431.884H453.298C453.272 431.404 453.065 431.011 452.678 430.704C452.305 430.384 451.805 430.224 451.178 430.224C450.632 430.224 450.192 430.364 449.858 430.644C449.538 430.924 449.378 431.331 449.378 431.864C449.378 432.238 449.498 432.551 449.738 432.804C449.992 433.044 450.298 433.244 450.658 433.404C451.032 433.551 451.552 433.724 452.218 433.924C453.125 434.191 453.865 434.458 454.438 434.724C455.012 434.991 455.505 435.391 455.918 435.924C456.332 436.458 456.538 437.158 456.538 438.024C456.538 438.771 456.345 439.464 455.958 440.104C455.572 440.744 455.005 441.258 454.258 441.644C453.512 442.018 452.625 442.204 451.598 442.204ZM462.226 433.284V438.644C462.226 439.018 462.313 439.291 462.486 439.464C462.673 439.624 462.979 439.704 463.406 439.704H464.706V442.064H462.946C460.586 442.064 459.406 440.918 459.406 438.624V433.284H458.086V430.984H459.406V428.244H462.226V430.984H464.706V433.284H462.226ZM477.32 430.984L470.46 447.304H467.48L469.88 441.784L465.44 430.984H468.58L471.44 438.724L474.34 430.984H477.32ZM481.629 427.264V442.064H478.829V427.264H481.629ZM494.696 436.284C494.696 436.684 494.669 437.044 494.616 437.364H486.516C486.582 438.164 486.862 438.791 487.356 439.244C487.849 439.698 488.456 439.924 489.176 439.924C490.216 439.924 490.956 439.478 491.396 438.584H494.416C494.096 439.651 493.482 440.531 492.576 441.224C491.669 441.904 490.556 442.244 489.236 442.244C488.169 442.244 487.209 442.011 486.356 441.544C485.516 441.064 484.856 440.391 484.376 439.524C483.909 438.658 483.676 437.658 483.676 436.524C483.676 435.378 483.909 434.371 484.376 433.504C484.842 432.638 485.496 431.971 486.336 431.504C487.176 431.038 488.142 430.804 489.236 430.804C490.289 430.804 491.229 431.031 492.056 431.484C492.896 431.938 493.542 432.584 493.996 433.424C494.462 434.251 494.696 435.204 494.696 436.284ZM491.796 435.484C491.782 434.764 491.522 434.191 491.016 433.764C490.509 433.324 489.889 433.104 489.156 433.104C488.462 433.104 487.876 433.318 487.396 433.744C486.929 434.158 486.642 434.738 486.536 435.484H491.796Z" fill="white"/>
<defs>
<filter id="filter0_d_2758_91" x="190.641" y="0.90625" width="157.992" height="157.992" filterUnits="userSpaceOnUse" color-interpolation-filters="sRGB">
<feFlood flood-opacity="0" result="BackgroundImageFix"/>
<feColorMatrix in="SourceAlpha" type="matrix" values="0 0 0 0 0 0 0 0 0 0 0 0 0 0 0 0 0 0 127 0" result="hardAlpha"/>
<feOffset/>
<feGaussianBlur stdDeviation="7.5"/>
<feComposite in2="hardAlpha" operator="out"/>
<feColorMatrix type="matrix" values="0 0 0 0 0.129412 0 0 0 0 0.611765 0 0 0 0 0.839216 0 0 0 1 0"/>
<feBlend mode="normal" in2="BackgroundImageFix" result="effect1_dropShadow_2758_91"/>
<feBlend mode="normal" in="SourceGraphic" in2="effect1_dropShadow_2758_91" result="shape"/>
</filter>
<filter id="filter1_d_2758_91" x="0.507812" y="270.072" width="157.992" height="157.992" filterUnits="userSpaceOnUse" color-interpolation-filters="sRGB">
<feFlood flood-opacity="0" result="BackgroundImageFix"/>
<feColorMatrix in="SourceAlpha" type="matrix" values="0 0 0 0 0 0 0 0 0 0 0 0 0 0 0 0 0 0 127 0" result="hardAlpha"/>
<feOffset/>
<feGaussianBlur stdDeviation="7.5"/>
<feComposite in2="hardAlpha" operator="out"/>
<feColorMatrix type="matrix" values="0 0 0 0 0.129412 0 0 0 0 0.611765 0 0 0 0 0.839216 0 0 0 1 0"/>
<feBlend mode="normal" in2="BackgroundImageFix" result="effect1_dropShadow_2758_91"/>
<feBlend mode="normal" in="SourceGraphic" in2="effect1_dropShadow_2758_91" result="shape"/>
</filter>
<filter id="filter2_d_2758_91" x="391.578" y="270.072" width="157.992" height="157.992" filterUnits="userSpaceOnUse" color-interpolation-filters="sRGB">
<feFlood flood-opacity="0" result="BackgroundImageFix"/>
<feColorMatrix in="SourceAlpha" type="matrix" values="0 0 0 0 0 0 0 0 0 0 0 0 0 0 0 0 0 0 127 0" result="hardAlpha"/>
<feOffset/>
<feGaussianBlur stdDeviation="7.5"/>
<feComposite in2="hardAlpha" operator="out"/>
<feColorMatrix type="matrix" values="0 0 0 0 0.129412 0 0 0 0 0.611765 0 0 0 0 0.839216 0 0 0 1 0"/>
<feBlend mode="normal" in2="BackgroundImageFix" result="effect1_dropShadow_2758_91"/>
<feBlend mode="normal" in="SourceGraphic" in2="effect1_dropShadow_2758_91" result="shape"/>
</filter>
<linearGradient id="paint0_linear_2758_91" x1="269.637" y1="15.9062" x2="269.637" y2="149.837" gradientUnits="userSpaceOnUse">
<stop stop-color="#219CD6"/>
<stop offset="1" stop-color="#115270"/>
</linearGradient>
<linearGradient id="paint1_linear_2758_91" x1="79.5039" y1="285.072" x2="79.5039" y2="419.003" gradientUnits="userSpaceOnUse">
<stop stop-color="#219CD6"/>
<stop offset="1" stop-color="#115270"/>
</linearGradient>
<linearGradient id="paint2_linear_2758_91" x1="470.574" y1="285.072" x2="470.574" y2="419.003" gradientUnits="userSpaceOnUse">
<stop stop-color="#219CD6"/>
<stop offset="1" stop-color="#115270"/>
</linearGradient>
</defs>
</svg>
