<svg width="412" height="662" viewBox="0 0 412 662" fill="none" xmlns="http://www.w3.org/2000/svg">
<mask id="mask0_2706_986" style="mask-type:alpha" maskUnits="userSpaceOnUse" x="0" y="0" width="412" height="662">
<path fill-rule="evenodd" clip-rule="evenodd" d="M241.913 28.1257L204.274 6.4477L166.634 28.1257V71.4605L204.274 93.1385L241.913 71.4605V28.1257ZM204.274 0.677734L161.634 25.2354V72.3903L120.079 96.3233V144.122L79.5639 167.456V216.403L40.8719 238.687V284.171L0.257812 307.409V356.525L40.8719 379.762V425.06L79.5639 447.344V496.15L120.079 519.483V567.404L160.953 590.945V636.56L203.593 661.117L244.804 637.383L286.015 661.117L327.226 637.383L368.437 661.117L411.077 636.56V587.444L370.155 563.876V519.542L410.771 496.15V447.034L370.155 423.642V382.349L411.053 358.794V309.679L369.952 286.007V240.798L411.765 216.716V167.601L369.952 143.519V98.4325L411.765 74.3508V25.2354L369.125 0.677734L327.914 24.4125L286.703 0.677734L245.488 24.4148L204.274 0.677734ZM286.3 375.124L323.639 353.619V312.569L285.999 290.891L248.359 312.569V353.272L286.3 375.124ZM370.155 375.944V376.579L406.053 355.904V312.569L368.413 290.891L330.774 312.569V353.263L370.155 375.944ZM289.875 422.169V381.119L327.206 359.619L365.155 381.475V422.169L327.515 443.848L289.875 422.169ZM160.93 358.794L200.358 381.502V422.15L162.718 443.828L126.151 422.768V378.795L160.93 358.765V358.794ZM207.446 381.119L244.784 359.615L282.725 381.466V422.169L245.086 443.848L207.446 422.169V381.119ZM241.209 353.619V312.569L203.57 290.891L165.93 312.569V353.217L203.919 375.096L241.209 353.619ZM159.82 310.69V353.036L123.098 374.186L86.0998 352.877V310.869L123.115 289.551L159.82 310.69ZM120.079 284.062V240.959L83.5117 219.899L45.8719 241.577V284.392L82.8094 305.527L120.079 284.062ZM200.358 284.912L163.058 306.394L126.151 285.139V240.959L162.718 219.899L200.358 241.577V284.912ZM42.5639 374.97L79.5405 353.674V310.072L42.7273 288.87L5.25781 310.309V353.625L42.5639 374.97ZM45.8719 422.169V379.541L82.8094 358.407L120.079 379.872V422.787L83.5117 443.848L45.8719 422.169ZM327.312 77.5356L364.952 99.2136V142.548L327.312 164.226L289.672 142.548V99.2136L327.312 77.5356ZM200.358 99.2136L162.718 77.5356L125.079 99.2136V142.548L162.718 164.226L200.358 142.548V99.2136ZM122.204 148.668L159.843 170.346V213.681L122.204 235.359L84.5639 213.681V170.346L122.204 148.668ZM159.843 449.925L122.204 428.247L84.5639 449.925V493.259L122.204 514.937L159.843 493.259V449.925ZM324.343 28.1257L286.703 6.4477L249.064 28.1257V71.4605L286.703 93.1385L324.343 71.4605V28.1257ZM283.156 99.2136L245.516 77.5356L207.876 99.2136V142.548L245.516 164.226L283.156 142.548V99.2136ZM369.125 6.4477L406.765 28.1257V71.4605L369.125 93.1385L331.485 71.4605V28.1257L369.125 6.4477ZM327.312 219.899L364.952 241.577V284.912L327.312 306.59L289.672 284.912V241.577L327.312 219.899ZM241.913 170.491L204.274 148.813L166.634 170.491V213.826L204.274 235.504L241.913 213.826V170.491ZM324.343 170.491L286.703 148.813L249.064 170.491V213.826L286.703 235.504L324.343 213.826V170.491ZM245.516 219.899L283.156 241.577V284.912L245.516 306.59L207.876 284.912V241.577L245.516 219.899ZM406.765 170.491L369.125 148.813L331.485 170.491V213.826L369.125 235.504L406.765 213.826V170.491ZM368.132 428.247L405.771 449.925V493.259L368.132 514.937L330.492 493.259V449.925L368.132 428.247ZM203.593 568.657L241.233 590.335V633.669L203.593 655.347L165.953 633.669V590.335L203.593 568.657ZM241.17 449.925L203.53 428.247L165.891 449.925V493.259L203.53 514.937L241.17 493.259V449.925ZM323.655 590.335L286.015 568.657L248.375 590.335V633.669L286.015 655.347L323.655 633.669V590.335ZM286.343 428.247L323.983 449.925V493.259L286.343 514.937L248.704 493.259V449.925L286.343 428.247ZM406.077 590.335L368.437 568.657L330.797 590.335V633.669L368.437 655.347L406.077 633.669V590.335ZM245.086 499.52L282.725 521.198V564.533L245.086 586.211L207.446 564.533V521.198L245.086 499.52ZM365.155 521.198L327.515 499.52L289.875 521.198V564.533L327.515 586.211L365.155 564.533V521.198ZM200.358 521.178L162.718 499.5L125.079 521.178V564.513L162.718 586.191L200.358 564.513V521.178Z" fill="url(#paint0_linear_2706_986)"/>
</mask>
<g mask="url(#mask0_2706_986)">
<rect x="0.257812" y="-5.75977" width="289.516" height="674.83" fill="url(#paint1_linear_2706_986)"/>
</g>
<defs>
<linearGradient id="paint0_linear_2706_986" x1="411.765" y1="330.898" x2="0.257812" y2="330.898" gradientUnits="userSpaceOnUse">
<stop stop-color="#219CD6"/>
<stop offset="1" stop-color="#219CD6" stop-opacity="0.3"/>
</linearGradient>
<linearGradient id="paint1_linear_2706_986" x1="301.829" y1="331.655" x2="-9.47915" y2="331.655" gradientUnits="userSpaceOnUse">
<stop stop-color="#219CD6"/>
<stop offset="1" stop-color="#219CD6"/>
</linearGradient>
</defs>
</svg>
