<svg width="117" height="118" viewBox="0 0 117 118" fill="none" xmlns="http://www.w3.org/2000/svg">
<g filter="url(#filter0_i_2706_2957)">
<rect x="10" y="10" width="97" height="97.047" rx="48.5" fill="#1A1A1A"/>
<rect x="5" y="5" width="107" height="107.047" rx="53.5" stroke="#4D4D4D" stroke-width="10"/>
<g filter="url(#filter1_i_2706_2957)">
<path d="M39.1328 34.7148H49.8731V83.0463H39.1328V34.7148Z" fill="#0093D8"/>
<path d="M67.125 50.8242H77.8653V83.0452H67.125V50.8242Z" fill="#0093D8"/>
<path d="M53.125 58.8809H63.8653V83.0466H53.125V58.8809Z" fill="#0093D8"/>
<path fill-rule="evenodd" clip-rule="evenodd" d="M60.7366 35.4963C59.4464 35.4963 58.209 36.0088 57.2967 36.9212C56.3844 37.8335 55.8718 39.0708 55.8718 40.3611C55.8718 41.6513 56.3844 42.8886 57.2967 43.801C58.209 44.7133 59.4464 45.2258 60.7366 45.2258C62.0268 45.2258 63.2642 44.7133 64.1765 43.801C65.0888 42.8886 65.6014 41.6513 65.6014 40.3611C65.6014 39.0708 65.0888 37.8335 64.1765 36.9212C63.2642 36.0088 62.0268 35.4963 60.7366 35.4963ZM54.375 40.3611C54.3751 39.3466 54.6178 38.347 55.0828 37.4454C55.5478 36.5438 56.2217 35.7666 57.0482 35.1784C57.8747 34.5902 58.8299 34.2083 59.834 34.0644C60.8382 33.9204 61.8622 34.0187 62.8207 34.3511C63.7791 34.6834 64.6442 35.2401 65.3437 35.9747C66.0432 36.7094 66.5569 37.6007 66.8419 38.5742C67.127 39.5478 67.175 40.5754 66.9821 41.5713C66.7892 42.5672 66.361 43.5025 65.7331 44.2993L68.4663 47.0325C68.6027 47.1737 68.6781 47.3627 68.6764 47.559C68.6747 47.7552 68.596 47.9429 68.4572 48.0817C68.3184 48.2204 68.1307 48.2991 67.9345 48.3008C67.7383 48.3026 67.5492 48.2271 67.4081 48.0908L64.6748 45.3575C63.7368 46.097 62.6095 46.5574 61.422 46.6861C60.2344 46.8148 59.0347 46.6065 57.96 46.0852C56.8853 45.5638 55.9791 44.7505 55.3451 43.7382C54.7111 42.7259 54.3749 41.5555 54.375 40.3611ZM59.9882 37.7416C59.9882 37.5431 60.067 37.3527 60.2074 37.2124C60.3477 37.072 60.5381 36.9932 60.7366 36.9932C61.6298 36.9932 62.4865 37.348 63.1181 37.9796C63.7497 38.6112 64.1045 39.4678 64.1045 40.3611C64.1045 40.5596 64.0257 40.7499 63.8853 40.8903C63.7449 41.0306 63.5546 41.1095 63.3561 41.1095C63.1576 41.1095 62.9672 41.0306 62.8269 40.8903C62.6865 40.7499 62.6077 40.5596 62.6077 40.3611C62.6077 39.8648 62.4105 39.3889 62.0596 39.038C61.7088 38.6871 61.2328 38.49 60.7366 38.49C60.5381 38.49 60.3477 38.4112 60.2074 38.2708C60.067 38.1304 59.9882 37.9401 59.9882 37.7416Z" fill="#0093D8"/>
</g>
</g>
<defs>
<filter id="filter0_i_2706_2957" x="0" y="0" width="128" height="128.047" filterUnits="userSpaceOnUse" color-interpolation-filters="sRGB">
<feFlood flood-opacity="0" result="BackgroundImageFix"/>
<feBlend mode="normal" in="SourceGraphic" in2="BackgroundImageFix" result="shape"/>
<feColorMatrix in="SourceAlpha" type="matrix" values="0 0 0 0 0 0 0 0 0 0 0 0 0 0 0 0 0 0 127 0" result="hardAlpha"/>
<feMorphology radius="2" operator="erode" in="SourceAlpha" result="effect1_innerShadow_2706_2957"/>
<feOffset dx="16" dy="12"/>
<feGaussianBlur stdDeviation="4.5"/>
<feComposite in2="hardAlpha" operator="arithmetic" k2="-1" k3="1"/>
<feColorMatrix type="matrix" values="0 0 0 0 1 0 0 0 0 1 0 0 0 0 1 0 0 0 0.1 0"/>
<feBlend mode="normal" in2="shape" result="effect1_innerShadow_2706_2957"/>
</filter>
<filter id="filter1_i_2706_2957" x="39.1328" y="34" width="38.7344" height="53.0469" filterUnits="userSpaceOnUse" color-interpolation-filters="sRGB">
<feFlood flood-opacity="0" result="BackgroundImageFix"/>
<feBlend mode="normal" in="SourceGraphic" in2="BackgroundImageFix" result="shape"/>
<feColorMatrix in="SourceAlpha" type="matrix" values="0 0 0 0 0 0 0 0 0 0 0 0 0 0 0 0 0 0 127 0" result="hardAlpha"/>
<feOffset dy="4"/>
<feGaussianBlur stdDeviation="2"/>
<feComposite in2="hardAlpha" operator="arithmetic" k2="-1" k3="1"/>
<feColorMatrix type="matrix" values="0 0 0 0 0 0 0 0 0 0 0 0 0 0 0 0 0 0 0.25 0"/>
<feBlend mode="normal" in2="shape" result="effect1_innerShadow_2706_2957"/>
</filter>
</defs>
</svg>
