<svg width="159" height="159" viewBox="0 0 159 159" fill="none" xmlns="http://www.w3.org/2000/svg">
<g filter="url(#filter0_d_2722_120)">
<circle cx="79.5117" cy="79.2422" r="63.9961" fill="url(#paint0_linear_2722_120)"/>
</g>
<path d="M120.678 71.7448C123.022 73.8585 124.337 76.723 124.336 79.7091C124.334 82.6952 123.016 85.5587 120.67 87.6705L92.975 112.558C91.952 113.476 90.6924 114.152 89.3085 114.525L72.6166 119.039C71.9378 119.223 71.216 119.236 70.5293 119.078C69.8427 118.919 69.2173 118.594 68.7209 118.139C68.2244 117.683 67.8758 117.114 67.7126 116.493C67.5495 115.872 67.5781 115.223 67.7953 114.616L73.091 99.8204C73.5187 98.6306 74.2574 97.5458 75.2372 96.6605L102.972 71.7413C104.135 70.6953 105.515 69.8657 107.035 69.3C108.554 68.7342 110.182 68.4434 111.826 68.444C113.471 68.4447 115.099 68.7368 116.618 69.3038C118.136 69.8707 119.516 70.7014 120.678 71.7483M107.093 75.4576L79.3587 100.373C79.0306 100.668 78.7853 101.029 78.6433 101.427L74.4829 113.055L87.6327 109.503C88.0938 109.378 88.5132 109.152 88.8536 108.845L116.545 83.9612C117.799 82.8331 118.504 81.3028 118.504 79.7071C118.504 78.1114 117.8 76.581 116.547 75.4524C115.294 74.3238 113.593 73.6896 111.82 73.6893C110.047 73.689 108.347 74.3225 107.093 75.4506M74.3585 50.4859L74.5529 50.8534L87.2011 79.7199L82.7025 83.7617L79.8253 77.1863H63.8333L59.9645 86.0048C59.7063 86.5956 59.2189 87.0821 58.5926 87.3742C57.9664 87.6664 57.2437 87.7443 56.5585 87.5935L56.1775 87.4851C55.5225 87.2514 54.9836 86.8122 54.6606 86.2487C54.3375 85.6852 54.2521 85.0354 54.42 84.4196L54.5366 84.0766L69.1328 50.8499C69.3334 50.3918 69.6731 49.9937 70.1131 49.7011C70.5531 49.4086 71.0757 49.2333 71.6211 49.1953C72.1665 49.1574 72.7128 49.2582 73.1976 49.4865C73.6823 49.7147 74.086 50.061 74.3624 50.4859M71.8429 58.9615L66.1389 71.9372H77.5235L71.8429 58.9615Z" fill="white"/>
<defs>
<filter id="filter0_d_2722_120" x="0.515625" y="0.246094" width="157.992" height="157.992" filterUnits="userSpaceOnUse" color-interpolation-filters="sRGB">
<feFlood flood-opacity="0" result="BackgroundImageFix"/>
<feColorMatrix in="SourceAlpha" type="matrix" values="0 0 0 0 0 0 0 0 0 0 0 0 0 0 0 0 0 0 127 0" result="hardAlpha"/>
<feOffset/>
<feGaussianBlur stdDeviation="7.5"/>
<feComposite in2="hardAlpha" operator="out"/>
<feColorMatrix type="matrix" values="0 0 0 0 0.129412 0 0 0 0 0.611765 0 0 0 0 0.839216 0 0 0 1 0"/>
<feBlend mode="normal" in2="BackgroundImageFix" result="effect1_dropShadow_2722_120"/>
<feBlend mode="normal" in="SourceGraphic" in2="effect1_dropShadow_2722_120" result="shape"/>
</filter>
<linearGradient id="paint0_linear_2722_120" x1="79.5117" y1="15.2461" x2="79.5117" y2="149.177" gradientUnits="userSpaceOnUse">
<stop stop-color="#219CD6"/>
<stop offset="1" stop-color="#115270"/>
</linearGradient>
</defs>
</svg>
