<svg width="120" height="120" viewBox="0 0 120 120" fill="none" xmlns="http://www.w3.org/2000/svg">
<g filter="url(#filter0_i_2706_2953)">
<rect x="10" y="10" width="99.1328" height="99.1328" rx="49.5664" fill="#1A1A1A"/>
<rect x="5" y="5" width="109.133" height="109.133" rx="54.5664" stroke="#4D4D4D" stroke-width="10"/>
<g filter="url(#filter1_i_2706_2953)">
<path d="M34.8787 64.0403C34.3161 64.6029 34 65.366 34 66.1617V82.1328C34 83.7897 35.3431 85.1328 37 85.1328H52.9712C53.7668 85.1328 54.5299 84.8167 55.0925 84.2541L83.0115 56.3351C84.1831 55.1635 84.1831 53.264 83.0115 52.0925L67.0403 36.1213C65.8688 34.9497 63.9693 34.9497 62.7977 36.1213L34.8787 64.0403Z" stroke="#00ADFF" stroke-width="4"/>
<path d="M64.5781 41.5176L76.7064 53.6459" stroke="#00ADFF" stroke-width="4"/>
</g>
</g>
<defs>
<filter id="filter0_i_2706_2953" x="0" y="0" width="130.133" height="130.133" filterUnits="userSpaceOnUse" color-interpolation-filters="sRGB">
<feFlood flood-opacity="0" result="BackgroundImageFix"/>
<feBlend mode="normal" in="SourceGraphic" in2="BackgroundImageFix" result="shape"/>
<feColorMatrix in="SourceAlpha" type="matrix" values="0 0 0 0 0 0 0 0 0 0 0 0 0 0 0 0 0 0 127 0" result="hardAlpha"/>
<feMorphology radius="2" operator="erode" in="SourceAlpha" result="effect1_innerShadow_2706_2953"/>
<feOffset dx="16" dy="12"/>
<feGaussianBlur stdDeviation="4.5"/>
<feComposite in2="hardAlpha" operator="arithmetic" k2="-1" k3="1"/>
<feColorMatrix type="matrix" values="0 0 0 0 1 0 0 0 0 1 0 0 0 0 1 0 0 0 0.1 0"/>
<feBlend mode="normal" in2="shape" result="effect1_innerShadow_2706_2953"/>
</filter>
<filter id="filter1_i_2706_2953" x="32" y="33.2422" width="53.8906" height="57.8906" filterUnits="userSpaceOnUse" color-interpolation-filters="sRGB">
<feFlood flood-opacity="0" result="BackgroundImageFix"/>
<feBlend mode="normal" in="SourceGraphic" in2="BackgroundImageFix" result="shape"/>
<feColorMatrix in="SourceAlpha" type="matrix" values="0 0 0 0 0 0 0 0 0 0 0 0 0 0 0 0 0 0 127 0" result="hardAlpha"/>
<feOffset dy="4"/>
<feGaussianBlur stdDeviation="2"/>
<feComposite in2="hardAlpha" operator="arithmetic" k2="-1" k3="1"/>
<feColorMatrix type="matrix" values="0 0 0 0 0 0 0 0 0 0 0 0 0 0 0 0 0 0 0.25 0"/>
<feBlend mode="normal" in2="shape" result="effect1_innerShadow_2706_2953"/>
</filter>
</defs>
</svg>
