<svg width="170" height="178" viewBox="0 0 170 178" fill="none" xmlns="http://www.w3.org/2000/svg">
<g clip-path="url(#clip0_2706_3024)">
<path d="M34.2344 139.986C34.2344 129.218 42.6422 120.488 52.9279 120.488C63.2137 120.488 71.6215 129.218 71.6215 139.986C71.6215 150.754 63.2137 159.484 52.9279 159.484C42.6422 159.484 34.2344 150.754 34.2344 139.986ZM38.7182 139.986C38.7182 148.12 45.0727 154.771 52.9279 154.771C60.7831 154.771 67.1376 148.12 67.1376 139.986C67.1376 131.853 60.7831 125.202 52.9279 125.202C45.0727 125.202 38.7182 131.853 38.7182 139.986Z" fill="#0090D4" stroke="black"/>
<path d="M45.2031 139.987C45.2031 135.518 48.6889 131.916 52.9289 131.916C57.169 131.916 60.6547 135.518 60.6547 139.987C60.6547 144.455 57.169 148.057 52.9289 148.057C48.6889 148.057 45.2031 144.455 45.2031 139.987ZM49.687 139.987C49.687 141.82 51.1207 143.343 52.9289 143.343C54.7372 143.343 56.1709 141.82 56.1709 139.987C56.1709 138.154 54.7372 136.63 52.9289 136.63C51.1207 136.63 49.687 138.154 49.687 139.987Z" fill="#0090D4" stroke="black"/>
<mask id="path-4-inside-1_2706_3024" fill="white">
<path d="M166.483 133.45L146.65 125.702H143.409V101.847C149.789 99.4879 154.376 93.1544 154.376 85.706V81.3351C154.376 77.8867 155.92 74.6099 158.611 72.3411C166.375 65.7931 170.828 56.0889 170.828 45.7099C170.828 35.9684 166.828 26.6518 159.852 20.1525C155.204 15.8189 149.483 13.0423 143.409 11.9646V8.5706C143.409 3.84518 139.718 0 135.183 0H9.05393C4.51861 0 0.828125 3.84518 0.828125 8.5706V134.273C0.828125 138.998 4.51861 142.843 9.05393 142.843H17.3947C17.8991 146.037 20.0571 148.72 23.0817 149.755C23.9128 150.04 24.5567 150.658 24.8554 151.46C24.9974 151.837 25.1406 152.208 25.2973 152.577C25.6204 153.354 25.5825 154.266 25.1932 155.072C23.5456 158.466 24.1736 162.551 26.7539 165.245L28.6868 167.262C31.2671 169.948 35.1878 170.602 38.4474 168.884C39.2211 168.479 40.0975 168.439 40.8466 168.778C41.1979 168.938 41.5541 169.087 41.9189 169.235C42.6839 169.546 43.2788 170.221 43.553 171.083C44.6878 174.697 47.9072 177.126 51.5585 177.126H54.2894C57.942 177.126 61.1603 174.695 62.2987 171.083C62.5729 170.217 63.1654 169.546 63.9353 169.235C64.2976 169.087 64.6539 168.938 65.0076 168.774C65.7568 168.44 66.6259 168.477 67.4019 168.883C70.6593 170.597 74.5836 169.943 77.1663 167.257L79.1016 165.243C81.6795 162.552 82.3073 158.463 80.6586 155.073C80.535 154.815 80.5081 154.541 80.4555 154.273H146.65L166.483 146.523C169.08 145.503 170.827 142.878 170.827 139.986C170.827 137.095 169.08 134.47 166.482 133.45L166.483 133.45ZM88.455 137.13C88.0878 134.807 86.8429 132.761 85.0274 131.416H143.407V137.13H88.455ZM88.455 142.843H143.41V148.557H85.03C86.8477 147.211 88.0926 145.166 88.4575 142.843H88.455ZM137.926 97.1334C131.878 97.1334 126.958 92.0077 126.958 85.706H148.894C148.894 92.0077 143.974 97.1334 137.926 97.1334ZM136.102 54.2805H139.749L138.101 79.9922H137.747L136.102 54.2805ZM165.345 45.7099C165.345 54.3546 161.632 62.4429 155.162 67.899C151.525 70.9651 149.327 75.3155 148.967 79.9922H143.598L145.243 54.2805H148.893C153.428 54.2805 157.119 50.4353 157.119 45.7099C157.119 40.9844 153.428 37.1393 148.893 37.1393H148.539C144.223 37.1393 140.615 40.653 140.333 45.1411L140.114 48.5667H135.738L135.519 45.1437C135.236 40.653 131.627 37.1393 127.311 37.1393H126.958C122.422 37.1393 118.732 40.9844 118.732 45.7099C118.732 50.4353 122.422 54.2805 126.958 54.2805H130.607L132.252 79.9922H126.88C126.511 75.3357 124.271 70.9499 120.572 67.7959C112.971 61.3168 109.332 51.3524 110.846 41.1441C112.684 28.7397 122.738 18.7228 134.759 17.3263C135.831 17.2013 136.902 17.1414 137.964 17.1414C144.725 17.1414 151.105 19.6641 156.198 24.4099C162.011 29.8265 165.345 37.5908 165.345 45.7099ZM145.612 48.5667L145.806 45.5186C145.899 44.0238 147.103 42.853 148.54 42.853H148.893C150.406 42.853 151.635 44.1335 151.635 45.7099C151.635 47.2862 150.406 48.5667 148.893 48.5667H145.612ZM130.24 48.5667H126.958C125.445 48.5667 124.216 47.2862 124.216 45.7099C124.216 44.1335 125.445 42.853 126.958 42.853H127.311C128.748 42.853 129.952 44.0238 130.045 45.5211L130.24 48.5667ZM72.1199 45.7099H63.8941C61.0861 45.7099 58.6048 47.1893 57.1214 49.4326C54.8079 47.1407 51.6973 45.7099 48.2626 45.7099H47.5134C45.1779 45.7099 42.885 46.3692 40.8801 47.6242L28.2488 55.5203V61.3679L40.2067 71.3326C42.4823 73.2329 45.3443 74.2787 48.2624 74.2787C51.6984 74.2787 54.8076 72.8478 57.1212 70.556C58.6048 72.7994 61.0859 74.2787 63.8939 74.2787H72.1197V79.9925H17.281V39.9964H72.1197L72.1199 45.7099ZM48.2626 68.5648C46.5868 68.5648 44.9415 67.9654 43.6342 66.8711L33.8231 58.6972L43.699 52.5231C44.8533 51.8038 46.1704 51.4237 47.5108 51.4237H48.2599C52.3446 51.4237 55.6682 54.8862 55.6682 59.1398V60.8489C55.6682 65.1022 52.3451 68.5648 48.2626 68.5648ZM63.8941 68.5648C62.3811 68.5648 61.1522 67.2843 61.1522 65.7079V54.2805C61.1522 52.7041 62.3811 51.4236 63.8941 51.4236H105.546C106.57 57.7916 109.264 63.7107 113.467 68.5648H63.8941ZM9.0554 5.71373H135.184C136.697 5.71373 137.926 6.99423 137.926 8.5706V11.4479C136.67 11.4453 135.41 11.5027 134.147 11.6481C126.087 12.5842 118.763 16.7585 113.481 22.8549H72.1205V11.4274H55.6689V22.8549H50.185V11.4274H33.7334V22.8549H28.2496V11.4274H11.798V22.8549H6.31409V8.57053C6.31409 6.99416 7.54308 5.71366 9.05603 5.71366L9.0554 5.71373ZM66.636 22.8549H61.1522V17.1412H66.636V22.8549ZM44.7006 22.8549H39.2167V17.1412H44.7006V22.8549ZM22.7651 22.8549H17.2812V17.1412H22.7651V22.8549ZM6.31347 134.273V28.5687H109.482C107.47 32.1399 106.05 36.0847 105.429 40.2766C105.157 42.1016 105.071 43.9141 105.071 45.7099H77.6049V34.2824H11.7984V85.706H77.6049V74.2785H119.032C120.6 76.3523 121.477 78.8175 121.477 81.3518V85.706C121.477 95.1591 128.856 102.847 137.929 102.847V125.702H80.4579C80.5106 125.433 80.5375 125.159 80.6611 124.905C82.3087 121.511 81.6808 117.426 79.1004 114.731L77.1676 112.717C74.5897 110.026 70.6641 109.366 67.407 111.091C66.637 111.499 65.7593 111.54 65.0078 111.197C64.6565 111.038 64.3003 110.889 63.9355 110.741C63.1704 110.429 62.5755 109.755 62.3013 108.893C61.1654 105.276 57.9462 102.847 54.2946 102.847H51.5637C47.9111 102.847 44.6929 105.278 43.5544 108.89C43.2802 109.756 42.6878 110.427 41.9178 110.738C41.5555 110.886 41.1993 111.035 40.8455 111.198C40.0964 111.533 39.2273 111.496 38.4512 111.09C35.1938 109.376 31.2695 110.03 28.6868 112.716L26.7515 114.73C24.1736 117.421 23.5458 121.51 25.1945 124.9C25.5862 125.708 25.6217 126.619 25.2961 127.399C25.1431 127.766 24.9998 128.137 24.8579 128.517C24.5592 129.314 23.9117 129.934 23.0842 130.219C20.0583 131.252 17.9002 133.936 17.3982 137.129H9.05736C7.54441 137.129 6.31543 135.849 6.31543 134.273L6.31347 134.273ZM75.8865 149.382C75.7715 149.691 75.6478 149.997 75.5242 150.297C74.5486 152.637 74.6356 155.316 75.7629 157.644C76.3382 158.83 76.1191 160.259 75.2194 161.199L73.2866 163.21C72.3844 164.15 71.0159 164.378 69.8725 163.779C67.6434 162.604 65.0692 162.514 62.8256 163.528C62.5355 163.659 62.2417 163.788 61.9479 163.908C59.6479 164.839 57.8792 166.808 57.092 169.301C56.693 170.564 55.568 171.412 54.2913 171.412H51.5604C50.2825 171.412 49.1588 170.564 48.7609 169.298C47.9739 166.807 46.2026 164.841 43.9051 163.909C43.6088 163.789 43.3151 163.66 43.0274 163.531C41.9906 163.063 40.8865 162.829 39.775 162.829C38.4775 162.829 37.1787 163.146 35.9717 163.78C34.8333 164.38 33.4623 164.151 32.5601 163.214L30.6297 161.2C29.7276 160.26 29.5085 158.832 30.0838 157.643C31.2111 155.318 31.298 152.638 30.3249 150.301C30.1988 149.998 30.0752 149.692 29.9601 149.386C29.0665 146.99 27.1766 145.147 24.7833 144.327C23.5776 143.912 22.7636 142.74 22.7636 141.41V138.565C22.7636 137.233 23.5776 136.062 24.7932 135.648C27.1838 134.828 29.0699 132.982 29.9649 130.588C30.08 130.28 30.2036 129.974 30.3272 129.674C31.3028 127.333 31.2159 124.654 30.0885 122.326C29.5132 121.14 29.7323 119.712 30.632 118.772L32.5649 116.758C33.467 115.82 34.838 115.595 35.979 116.192C38.2104 117.366 40.7885 117.461 43.0259 116.443C43.316 116.311 43.6098 116.183 43.9036 116.063C46.2036 115.132 47.9723 113.163 48.7594 110.669C49.1573 109.409 50.2822 108.561 51.5589 108.561H54.2898C55.5677 108.561 56.6915 109.409 57.0893 110.675C57.8764 113.166 59.6476 115.131 61.9452 116.064C62.2414 116.184 62.5352 116.313 62.8228 116.441C65.0715 117.458 67.6408 117.367 69.8748 116.193C71.0181 115.589 72.3866 115.824 73.2864 116.759L75.2168 118.773C76.1189 119.713 76.338 121.141 75.7627 122.33C74.6353 124.655 74.5484 127.335 75.5216 129.672C75.6476 129.975 75.7713 130.281 75.8863 130.587C76.7799 132.983 78.6699 134.826 81.0631 135.646C82.2725 136.061 83.0865 137.233 83.0865 138.563V141.408C83.0865 142.74 82.2725 143.911 81.057 144.325C78.6664 145.145 76.7802 146.988 75.8865 149.382ZM164.556 141.172L148.894 147.292V132.682L164.556 138.799C165.027 138.984 165.346 139.461 165.346 139.986C165.346 140.511 165.027 140.989 164.556 141.172Z"/>
</mask>
<path d="M166.483 133.45L146.65 125.702H143.409V101.847C149.789 99.4879 154.376 93.1544 154.376 85.706V81.3351C154.376 77.8867 155.92 74.6099 158.611 72.3411C166.375 65.7931 170.828 56.0889 170.828 45.7099C170.828 35.9684 166.828 26.6518 159.852 20.1525C155.204 15.8189 149.483 13.0423 143.409 11.9646V8.5706C143.409 3.84518 139.718 0 135.183 0H9.05393C4.51861 0 0.828125 3.84518 0.828125 8.5706V134.273C0.828125 138.998 4.51861 142.843 9.05393 142.843H17.3947C17.8991 146.037 20.0571 148.72 23.0817 149.755C23.9128 150.04 24.5567 150.658 24.8554 151.46C24.9974 151.837 25.1406 152.208 25.2973 152.577C25.6204 153.354 25.5825 154.266 25.1932 155.072C23.5456 158.466 24.1736 162.551 26.7539 165.245L28.6868 167.262C31.2671 169.948 35.1878 170.602 38.4474 168.884C39.2211 168.479 40.0975 168.439 40.8466 168.778C41.1979 168.938 41.5541 169.087 41.9189 169.235C42.6839 169.546 43.2788 170.221 43.553 171.083C44.6878 174.697 47.9072 177.126 51.5585 177.126H54.2894C57.942 177.126 61.1603 174.695 62.2987 171.083C62.5729 170.217 63.1654 169.546 63.9353 169.235C64.2976 169.087 64.6539 168.938 65.0076 168.774C65.7568 168.44 66.6259 168.477 67.4019 168.883C70.6593 170.597 74.5836 169.943 77.1663 167.257L79.1016 165.243C81.6795 162.552 82.3073 158.463 80.6586 155.073C80.535 154.815 80.5081 154.541 80.4555 154.273H146.65L166.483 146.523C169.08 145.503 170.827 142.878 170.827 139.986C170.827 137.095 169.08 134.47 166.482 133.45L166.483 133.45ZM88.455 137.13C88.0878 134.807 86.8429 132.761 85.0274 131.416H143.407V137.13H88.455ZM88.455 142.843H143.41V148.557H85.03C86.8477 147.211 88.0926 145.166 88.4575 142.843H88.455ZM137.926 97.1334C131.878 97.1334 126.958 92.0077 126.958 85.706H148.894C148.894 92.0077 143.974 97.1334 137.926 97.1334ZM136.102 54.2805H139.749L138.101 79.9922H137.747L136.102 54.2805ZM165.345 45.7099C165.345 54.3546 161.632 62.4429 155.162 67.899C151.525 70.9651 149.327 75.3155 148.967 79.9922H143.598L145.243 54.2805H148.893C153.428 54.2805 157.119 50.4353 157.119 45.7099C157.119 40.9844 153.428 37.1393 148.893 37.1393H148.539C144.223 37.1393 140.615 40.653 140.333 45.1411L140.114 48.5667H135.738L135.519 45.1437C135.236 40.653 131.627 37.1393 127.311 37.1393H126.958C122.422 37.1393 118.732 40.9844 118.732 45.7099C118.732 50.4353 122.422 54.2805 126.958 54.2805H130.607L132.252 79.9922H126.88C126.511 75.3357 124.271 70.9499 120.572 67.7959C112.971 61.3168 109.332 51.3524 110.846 41.1441C112.684 28.7397 122.738 18.7228 134.759 17.3263C135.831 17.2013 136.902 17.1414 137.964 17.1414C144.725 17.1414 151.105 19.6641 156.198 24.4099C162.011 29.8265 165.345 37.5908 165.345 45.7099ZM145.612 48.5667L145.806 45.5186C145.899 44.0238 147.103 42.853 148.54 42.853H148.893C150.406 42.853 151.635 44.1335 151.635 45.7099C151.635 47.2862 150.406 48.5667 148.893 48.5667H145.612ZM130.24 48.5667H126.958C125.445 48.5667 124.216 47.2862 124.216 45.7099C124.216 44.1335 125.445 42.853 126.958 42.853H127.311C128.748 42.853 129.952 44.0238 130.045 45.5211L130.24 48.5667ZM72.1199 45.7099H63.8941C61.0861 45.7099 58.6048 47.1893 57.1214 49.4326C54.8079 47.1407 51.6973 45.7099 48.2626 45.7099H47.5134C45.1779 45.7099 42.885 46.3692 40.8801 47.6242L28.2488 55.5203V61.3679L40.2067 71.3326C42.4823 73.2329 45.3443 74.2787 48.2624 74.2787C51.6984 74.2787 54.8076 72.8478 57.1212 70.556C58.6048 72.7994 61.0859 74.2787 63.8939 74.2787H72.1197V79.9925H17.281V39.9964H72.1197L72.1199 45.7099ZM48.2626 68.5648C46.5868 68.5648 44.9415 67.9654 43.6342 66.8711L33.8231 58.6972L43.699 52.5231C44.8533 51.8038 46.1704 51.4237 47.5108 51.4237H48.2599C52.3446 51.4237 55.6682 54.8862 55.6682 59.1398V60.8489C55.6682 65.1022 52.3451 68.5648 48.2626 68.5648ZM63.8941 68.5648C62.3811 68.5648 61.1522 67.2843 61.1522 65.7079V54.2805C61.1522 52.7041 62.3811 51.4236 63.8941 51.4236H105.546C106.57 57.7916 109.264 63.7107 113.467 68.5648H63.8941ZM9.0554 5.71373H135.184C136.697 5.71373 137.926 6.99423 137.926 8.5706V11.4479C136.67 11.4453 135.41 11.5027 134.147 11.6481C126.087 12.5842 118.763 16.7585 113.481 22.8549H72.1205V11.4274H55.6689V22.8549H50.185V11.4274H33.7334V22.8549H28.2496V11.4274H11.798V22.8549H6.31409V8.57053C6.31409 6.99416 7.54308 5.71366 9.05603 5.71366L9.0554 5.71373ZM66.636 22.8549H61.1522V17.1412H66.636V22.8549ZM44.7006 22.8549H39.2167V17.1412H44.7006V22.8549ZM22.7651 22.8549H17.2812V17.1412H22.7651V22.8549ZM6.31347 134.273V28.5687H109.482C107.47 32.1399 106.05 36.0847 105.429 40.2766C105.157 42.1016 105.071 43.9141 105.071 45.7099H77.6049V34.2824H11.7984V85.706H77.6049V74.2785H119.032C120.6 76.3523 121.477 78.8175 121.477 81.3518V85.706C121.477 95.1591 128.856 102.847 137.929 102.847V125.702H80.4579C80.5106 125.433 80.5375 125.159 80.6611 124.905C82.3087 121.511 81.6808 117.426 79.1004 114.731L77.1676 112.717C74.5897 110.026 70.6641 109.366 67.407 111.091C66.637 111.499 65.7593 111.54 65.0078 111.197C64.6565 111.038 64.3003 110.889 63.9355 110.741C63.1704 110.429 62.5755 109.755 62.3013 108.893C61.1654 105.276 57.9462 102.847 54.2946 102.847H51.5637C47.9111 102.847 44.6929 105.278 43.5544 108.89C43.2802 109.756 42.6878 110.427 41.9178 110.738C41.5555 110.886 41.1993 111.035 40.8455 111.198C40.0964 111.533 39.2273 111.496 38.4512 111.09C35.1938 109.376 31.2695 110.03 28.6868 112.716L26.7515 114.73C24.1736 117.421 23.5458 121.51 25.1945 124.9C25.5862 125.708 25.6217 126.619 25.2961 127.399C25.1431 127.766 24.9998 128.137 24.8579 128.517C24.5592 129.314 23.9117 129.934 23.0842 130.219C20.0583 131.252 17.9002 133.936 17.3982 137.129H9.05736C7.54441 137.129 6.31543 135.849 6.31543 134.273L6.31347 134.273ZM75.8865 149.382C75.7715 149.691 75.6478 149.997 75.5242 150.297C74.5486 152.637 74.6356 155.316 75.7629 157.644C76.3382 158.83 76.1191 160.259 75.2194 161.199L73.2866 163.21C72.3844 164.15 71.0159 164.378 69.8725 163.779C67.6434 162.604 65.0692 162.514 62.8256 163.528C62.5355 163.659 62.2417 163.788 61.9479 163.908C59.6479 164.839 57.8792 166.808 57.092 169.301C56.693 170.564 55.568 171.412 54.2913 171.412H51.5604C50.2825 171.412 49.1588 170.564 48.7609 169.298C47.9739 166.807 46.2026 164.841 43.9051 163.909C43.6088 163.789 43.3151 163.66 43.0274 163.531C41.9906 163.063 40.8865 162.829 39.775 162.829C38.4775 162.829 37.1787 163.146 35.9717 163.78C34.8333 164.38 33.4623 164.151 32.5601 163.214L30.6297 161.2C29.7276 160.26 29.5085 158.832 30.0838 157.643C31.2111 155.318 31.298 152.638 30.3249 150.301C30.1988 149.998 30.0752 149.692 29.9601 149.386C29.0665 146.99 27.1766 145.147 24.7833 144.327C23.5776 143.912 22.7636 142.74 22.7636 141.41V138.565C22.7636 137.233 23.5776 136.062 24.7932 135.648C27.1838 134.828 29.0699 132.982 29.9649 130.588C30.08 130.28 30.2036 129.974 30.3272 129.674C31.3028 127.333 31.2159 124.654 30.0885 122.326C29.5132 121.14 29.7323 119.712 30.632 118.772L32.5649 116.758C33.467 115.82 34.838 115.595 35.979 116.192C38.2104 117.366 40.7885 117.461 43.0259 116.443C43.316 116.311 43.6098 116.183 43.9036 116.063C46.2036 115.132 47.9723 113.163 48.7594 110.669C49.1573 109.409 50.2822 108.561 51.5589 108.561H54.2898C55.5677 108.561 56.6915 109.409 57.0893 110.675C57.8764 113.166 59.6476 115.131 61.9452 116.064C62.2414 116.184 62.5352 116.313 62.8228 116.441C65.0715 117.458 67.6408 117.367 69.8748 116.193C71.0181 115.589 72.3866 115.824 73.2864 116.759L75.2168 118.773C76.1189 119.713 76.338 121.141 75.7627 122.33C74.6353 124.655 74.5484 127.335 75.5216 129.672C75.6476 129.975 75.7713 130.281 75.8863 130.587C76.7799 132.983 78.6699 134.826 81.0631 135.646C82.2725 136.061 83.0865 137.233 83.0865 138.563V141.408C83.0865 142.74 82.2725 143.911 81.057 144.325C78.6664 145.145 76.7802 146.988 75.8865 149.382ZM164.556 141.172L148.894 147.292V132.682L164.556 138.799C165.027 138.984 165.346 139.461 165.346 139.986C165.346 140.511 165.027 140.989 164.556 141.172Z" fill="white" stroke="black" stroke-width="2" mask="url(#path-4-inside-1_2706_3024)"/>
<path d="M83.5859 80.4922H115.489V85.2059H83.5859V80.4922Z" fill="#0090D4" stroke="black"/>
<path d="M83.5859 91.9199H115.489V96.6337H83.5859V91.9199Z" fill="#0090D4" stroke="black"/>
<path d="M83.5859 103.348H115.489V108.061H83.5859V103.348Z" fill="#0090D4" stroke="black"/>
<path d="M100.039 114.775H104.523V119.489H100.039V114.775Z" fill="#0090D4" stroke="black"/>
<path d="M111.008 114.775H115.492V119.489H111.008V114.775Z" fill="#0090D4" stroke="black"/>
<path d="M89.0703 114.775H93.5542V119.489H89.0703V114.775Z" fill="#0090D4" stroke="black"/>
</g>
<rect width="170" height="177.126" stroke="black"/>
<defs>
<clipPath id="clip0_2706_3024">
<rect width="170" height="177.126" fill="white"/>
</clipPath>
</defs>
</svg>
