<svg width="171" height="164" viewBox="0 0 171 164" fill="none" xmlns="http://www.w3.org/2000/svg">
<path d="M81.7756 40.9213L81.7756 40.9213C81.8435 40.8837 81.9514 40.8392 82.0829 40.8392C82.1743 40.8392 82.2772 40.8603 82.3869 40.9216L82.387 40.9216L88.6194 44.3684L88.6194 44.3684C88.8852 44.5151 88.9245 44.7476 88.9245 44.8735C88.9245 44.9994 88.8852 45.2319 88.6194 45.3787L88.6194 45.3787L82.3866 48.8254L82.3866 48.8254C82.1215 48.9724 81.8907 48.8887 81.7755 48.8254L81.7755 48.8254C81.6607 48.7623 81.4709 48.6131 81.4709 48.3202V41.4265C81.4709 41.1339 81.6607 40.9847 81.7756 40.9213ZM79.9427 51.8699C80.612 52.2403 81.3465 52.4254 82.0811 52.4254C82.8157 52.4254 83.5502 52.24 84.2195 51.8696C84.2195 51.8696 84.2195 51.8696 84.2195 51.8696L90.4519 48.4229C91.7911 47.6823 92.5915 46.3553 92.5915 44.8728C92.5915 43.3904 91.7911 42.0634 90.4519 41.3228L84.2195 37.8761C82.8808 37.1356 81.2818 37.1356 79.9427 37.8761C78.6035 38.6166 77.8031 39.944 77.8031 41.4261V48.3199C77.8031 49.802 78.6035 51.1294 79.9427 51.8699Z" fill="#0091D7" stroke="white" stroke-width="0.05"/>
<path d="M66.9281 44.8718C66.9281 54.5268 75.128 62.3799 85.2047 62.3799C95.2811 62.3799 103.481 54.5268 103.481 44.8718C103.481 35.2167 95.2811 27.3637 85.2047 27.3637C75.128 27.3637 66.9281 35.2167 66.9281 44.8718ZM70.5955 44.8718C70.5955 37.157 77.1482 30.8788 85.2047 30.8788C93.2613 30.8788 99.8135 37.157 99.8135 44.8718C99.8135 52.5865 93.2613 58.8648 85.2047 58.8648C77.1482 58.8648 70.5955 52.5865 70.5955 44.8718Z" fill="#0091D7" stroke="white" stroke-width="0.05"/>
<path d="M29.1368 89.08H141.276C142.288 89.08 143.11 88.2944 143.11 87.3225V2.42786C143.11 1.45634 142.288 0.670312 141.276 0.670312H29.1368C28.1253 0.670312 27.3031 1.45634 27.3031 2.42786V87.3225C27.3031 88.2944 28.1253 89.08 29.1368 89.08ZM139.443 4.1854V85.565H30.9705V4.1854H139.443Z" fill="#0091D7" stroke="white" stroke-width="0.05"/>
<path d="M39.9884 23.2427H54.458C55.4695 23.2427 56.2917 22.4566 56.2917 21.4851V12.8224C56.2917 11.8509 55.4695 11.0648 54.458 11.0648H39.9884C38.9768 11.0648 38.1547 11.8509 38.1547 12.8224V21.4851C38.1547 22.4566 38.9768 23.2427 39.9884 23.2427ZM52.6243 14.5799V19.7276H41.8221V14.5799H52.6243Z" fill="#0091D7" stroke="white" stroke-width="0.05"/>
<path d="M65.3321 23.2427H79.8017C80.8133 23.2427 81.6354 22.4566 81.6354 21.4851V12.8224C81.6354 11.8509 80.8133 11.0648 79.8017 11.0648H65.3321C64.3206 11.0648 63.4984 11.8509 63.4984 12.8224V21.4851C63.4984 22.4566 64.3206 23.2427 65.3321 23.2427ZM77.968 14.5799V19.7276H67.1658V14.5799H77.968Z" fill="#0091D7" stroke="white" stroke-width="0.05"/>
<path d="M12.7436 135.857H157.68C164.608 135.857 170.246 130.458 170.246 123.819V113.309C170.246 112.337 169.424 111.551 168.412 111.551H2.01182C1.00028 111.551 0.178125 112.337 0.178125 113.309V123.819C0.178125 130.458 5.81576 135.857 12.7436 135.857ZM3.84553 123.819V115.066H166.579V123.819C166.579 128.518 162.588 132.342 157.681 132.342H12.7436C7.83596 132.342 3.84553 128.518 3.84553 123.819Z" fill="white" stroke="#0091D7" stroke-width="0.05"/>
<path d="M2.01182 115.067H168.412C169.424 115.067 170.246 114.281 170.246 113.309V35.8645C170.246 27.9205 163.499 21.4594 155.209 21.4594H141.282C140.27 21.4594 139.448 22.2454 139.448 23.2169C139.448 24.1884 140.27 24.9745 141.282 24.9745H155.209C161.479 24.9745 166.579 29.8608 166.579 35.8645V111.552H3.84553V35.8645C3.84553 29.8608 8.94506 24.9745 15.2153 24.9745H29.1423C30.1539 24.9745 30.976 24.1884 30.976 23.2169C30.976 22.2454 30.1539 21.4594 29.1423 21.4594H15.2153C6.92486 21.4594 0.178125 27.9205 0.178125 35.8645V113.309C0.178125 114.281 1.00028 115.067 2.01182 115.067Z" fill="white" stroke="#0091D7" stroke-width="0.05"/>
<path d="M90.6446 23.2427H105.114C106.126 23.2427 106.948 22.4566 106.948 21.4851V12.8224C106.948 11.8509 106.126 11.0648 105.114 11.0648H90.6446C89.6327 11.0648 88.8109 11.8509 88.8109 12.8224V21.4851C88.8109 22.4566 89.6327 23.2427 90.6446 23.2427ZM103.281 14.5799V19.7276H92.4783V14.5799H103.281Z" fill="#0091D7" stroke="white" stroke-width="0.05"/>
<path d="M130.427 23.2177H115.957C114.958 23.2177 114.148 22.4418 114.148 21.4851V12.8224C114.148 11.8657 114.958 11.0898 115.957 11.0898H130.427C131.426 11.0898 132.235 11.8657 132.235 12.8224V21.4851C132.235 22.4418 131.426 23.2177 130.427 23.2177ZM117.766 19.7526H128.618V14.5549H117.766V19.7526Z" fill="#0091D7" stroke="#0091D7" stroke-width="0.05"/>
<path d="M54.458 78.6591H39.9884C38.9896 78.6591 38.1797 77.8832 38.1797 76.9265V68.2638C38.1797 67.3071 38.9896 66.5312 39.9884 66.5312H54.458C55.4568 66.5312 56.2667 67.3071 56.2667 68.2638V76.9265C56.2667 77.8832 55.4568 78.6591 54.458 78.6591ZM41.7971 75.194H52.6493V69.9963H41.7971V75.194Z" fill="#0091D7" stroke="#0091D7" stroke-width="0.05"/>
<path d="M79.8017 78.6591H65.3321C64.3334 78.6591 63.5234 77.8832 63.5234 76.9265V68.2638C63.5234 67.3071 64.3334 66.5312 65.3321 66.5312H79.8017C80.8005 66.5312 81.6104 67.3071 81.6104 68.2638V76.9265C81.6104 77.8832 80.8005 78.6591 79.8017 78.6591ZM67.1408 75.194H77.993V69.9963H67.1408V75.194Z" fill="#0091D7" stroke="#0091D7" stroke-width="0.05"/>
<path d="M105.114 78.6591H90.6446C89.6455 78.6591 88.8359 77.8832 88.8359 76.9265V68.2638C88.8359 67.3071 89.6455 66.5312 90.6446 66.5312H105.114C106.113 66.5312 106.923 67.3071 106.923 68.2638V76.9265C106.923 77.8832 106.113 78.6591 105.114 78.6591ZM92.4533 75.194H103.306V69.9963H92.4533V75.194Z" fill="#0091D7" stroke="#0091D7" stroke-width="0.05"/>
<path d="M130.427 78.6591H115.957C114.958 78.6591 114.148 77.8832 114.148 76.9265V68.2638C114.148 67.3071 114.958 66.5312 115.957 66.5312H130.427C131.426 66.5312 132.235 67.3071 132.235 68.2638V76.9265C132.235 77.8832 131.426 78.6591 130.427 78.6591ZM117.766 75.194H128.618V69.9963H117.766V75.194Z" fill="#0091D7" stroke="#0091D7" stroke-width="0.05"/>
<path d="M65.3243 156.65H105.116C106.128 156.65 106.949 155.864 106.949 154.892V134.102C106.949 133.13 106.128 132.344 105.116 132.344H65.3243C64.3128 132.344 63.4906 133.13 63.4906 134.102V154.892C63.4906 155.864 64.3128 156.65 65.3243 156.65ZM103.282 135.859V153.135H67.158V135.859H103.282Z" fill="white" stroke="#0091D7" stroke-width="0.05"/>
<path d="M74.3556 156.65H96.06C97.0719 156.65 97.8937 155.864 97.8937 154.892V134.102C97.8937 133.13 97.0719 132.344 96.06 132.344H74.3556C73.344 132.344 72.5219 133.13 72.5219 134.102V154.892C72.5219 155.864 73.344 156.65 74.3556 156.65ZM94.2263 135.859V153.135H76.1893V135.859H94.2263Z" fill="white" stroke="#0091D7" stroke-width="0.05"/>
<path d="M59.8792 163.58H110.523C113.528 163.58 115.974 161.239 115.974 158.358C115.974 155.477 113.528 153.135 110.523 153.135H59.8792C56.8745 153.135 54.4281 155.477 54.4281 158.358C54.4281 161.239 56.8745 163.58 59.8792 163.58ZM58.0955 158.358C58.0955 157.417 58.8947 156.65 59.8792 156.65H110.523C111.507 156.65 112.307 157.417 112.307 158.358C112.307 159.298 111.507 160.065 110.523 160.065H59.8792C58.8947 160.065 58.0955 159.298 58.0955 158.358Z" fill="white" stroke="#0091D7" stroke-width="0.05"/>
</svg>
