<svg width="123" height="110" viewBox="0 0 123 110" fill="none" xmlns="http://www.w3.org/2000/svg">
<g filter="url(#filter0_i_2706_2944)">
<rect x="10" y="10.5293" width="102.305" height="88.7705" rx="44.3853" fill="#1A1A1A"/>
<rect x="5" y="5.5293" width="112.305" height="98.7705" rx="49.3853" stroke="#4D4D4D" stroke-width="10"/>
<g filter="url(#filter1_i_2706_2944)">
<path d="M76.237 48.5906C76.237 49.4566 77.2629 49.9132 77.9063 49.3336L86.6353 41.4693C87.2787 40.8897 88.3047 41.3463 88.3047 42.2123V67.6169C88.3047 68.4829 87.2787 68.9395 86.6353 68.3598L77.9063 60.4956C77.2629 59.9159 76.237 60.3725 76.237 61.2385V68.5047C76.237 70.3069 75.4423 72.0353 74.0279 73.3096C72.6134 74.5839 70.695 75.2998 68.6947 75.2998H41.5423C39.542 75.2998 37.6236 74.5839 36.2091 73.3096C34.7946 72.0353 34 70.3069 34 68.5047V41.3244C34 39.5222 34.7946 37.7939 36.2091 36.5195C37.6236 35.2452 39.542 34.5293 41.5423 34.5293H68.6947C70.695 34.5293 72.6134 35.2452 74.0279 36.5195C75.4423 37.7939 76.237 39.5222 76.237 41.3244V48.5906Z" stroke="#35BEFF" stroke-width="4"/>
</g>
</g>
<defs>
<filter id="filter0_i_2706_2944" x="0" y="0.529297" width="133.305" height="119.771" filterUnits="userSpaceOnUse" color-interpolation-filters="sRGB">
<feFlood flood-opacity="0" result="BackgroundImageFix"/>
<feBlend mode="normal" in="SourceGraphic" in2="BackgroundImageFix" result="shape"/>
<feColorMatrix in="SourceAlpha" type="matrix" values="0 0 0 0 0 0 0 0 0 0 0 0 0 0 0 0 0 0 127 0" result="hardAlpha"/>
<feMorphology radius="2" operator="erode" in="SourceAlpha" result="effect1_innerShadow_2706_2944"/>
<feOffset dx="16" dy="12"/>
<feGaussianBlur stdDeviation="4.5"/>
<feComposite in2="hardAlpha" operator="arithmetic" k2="-1" k3="1"/>
<feColorMatrix type="matrix" values="0 0 0 0 1 0 0 0 0 1 0 0 0 0 1 0 0 0 0.1 0"/>
<feBlend mode="normal" in2="shape" result="effect1_innerShadow_2706_2944"/>
</filter>
<filter id="filter1_i_2706_2944" x="32" y="32.5293" width="58.3047" height="48.7715" filterUnits="userSpaceOnUse" color-interpolation-filters="sRGB">
<feFlood flood-opacity="0" result="BackgroundImageFix"/>
<feBlend mode="normal" in="SourceGraphic" in2="BackgroundImageFix" result="shape"/>
<feColorMatrix in="SourceAlpha" type="matrix" values="0 0 0 0 0 0 0 0 0 0 0 0 0 0 0 0 0 0 127 0" result="hardAlpha"/>
<feOffset dy="4"/>
<feGaussianBlur stdDeviation="2"/>
<feComposite in2="hardAlpha" operator="arithmetic" k2="-1" k3="1"/>
<feColorMatrix type="matrix" values="0 0 0 0 0 0 0 0 0 0 0 0 0 0 0 0 0 0 0.25 0"/>
<feBlend mode="normal" in2="shape" result="effect1_innerShadow_2706_2944"/>
</filter>
</defs>
</svg>
