<svg width="171" height="171" viewBox="0 0 171 171" fill="none" xmlns="http://www.w3.org/2000/svg">
<path d="M53.6934 121.019H28.997C28.2399 121.019 27.625 120.404 27.625 119.647V103.183C27.625 102.425 28.2399 101.811 28.997 101.811C29.7541 101.811 30.369 102.425 30.369 103.183V118.275H53.6934C54.4504 118.275 55.0654 118.89 55.0654 119.647C55.0654 120.404 54.4504 121.019 53.6934 121.019Z" fill="#00ADFF"/>
<path d="M160.717 121.023H89.372C88.6149 121.023 88 120.408 88 119.651C88 118.894 88.6149 118.279 89.372 118.279H159.343V49.6776H92.1129C91.3558 49.6776 90.7409 49.0627 90.7409 48.3056C90.7409 47.5485 91.3558 46.9336 92.1129 46.9336H160.714C161.471 46.9336 162.086 47.5485 162.086 48.3056V119.651C162.086 120.408 161.471 121.023 160.714 121.023H160.717Z" fill="white"/>
<path d="M72.8946 164.925C72.799 164.925 72.6973 164.914 72.5981 164.892C71.857 164.728 71.3939 163.995 71.5556 163.254L77.0437 138.557C77.2079 137.819 77.933 137.358 78.6816 137.515C79.4227 137.679 79.8857 138.412 79.724 139.153L74.236 163.849C74.0939 164.489 73.523 164.925 72.8946 164.925Z" fill="white"/>
<path d="M116.805 164.925C116.177 164.925 115.606 164.489 115.466 163.849L109.978 139.153C109.814 138.412 110.28 137.679 111.021 137.515C111.77 137.358 112.494 137.82 112.659 138.557L118.147 163.254C118.311 163.995 117.845 164.727 117.104 164.892C117.003 164.914 116.901 164.925 116.805 164.925Z" fill="white"/>
<path d="M133.275 140.227H28.2455C23.3662 140.227 19.3984 136.204 19.3984 131.256V103.183C19.3984 102.425 20.0134 101.811 20.7705 101.811C21.5275 101.811 22.1425 102.425 22.1425 103.183V131.256C22.1425 134.69 24.878 137.483 28.2455 137.483H133.275C134.032 137.483 134.647 138.098 134.647 138.855C134.647 139.612 134.032 140.227 133.275 140.227Z" fill="white"/>
<path d="M161.463 140.229H155.218C154.461 140.229 153.846 139.614 153.846 138.857C153.846 138.1 154.461 137.485 155.218 137.485H161.463C164.831 137.485 167.566 134.692 167.566 131.258V47.6699C167.566 44.2362 164.831 41.4433 161.463 41.4433H92.1064C91.3493 41.4433 90.7344 40.8283 90.7344 40.0712C90.7344 39.3142 91.3493 38.6992 92.1064 38.6992H161.463C166.343 38.6992 170.31 42.7221 170.31 47.6699V131.258C170.31 136.204 166.343 140.228 161.463 140.228V140.229Z" fill="white"/>
<path d="M148.363 170.414H140.131C135.592 170.414 131.898 166.721 131.898 162.182V137.486C131.898 132.947 135.592 129.254 140.131 129.254H148.363C152.901 129.254 156.595 132.947 156.595 137.486V162.182C156.595 166.721 152.901 170.414 148.363 170.414ZM140.131 131.998C137.104 131.998 134.642 134.459 134.642 137.486V162.182C134.642 165.209 137.104 167.67 140.131 167.67H148.363C151.39 167.67 153.851 165.209 153.851 162.182V137.486C153.851 134.459 151.39 131.998 148.363 131.998H140.131Z" fill="white"/>
<path d="M144.255 145.716C143.498 145.716 142.883 145.102 142.883 144.344V138.856C142.883 138.099 143.498 137.484 144.255 137.484C145.012 137.484 145.627 138.099 145.627 138.856V144.344C145.627 145.102 145.012 145.716 144.255 145.716Z" fill="white"/>
<path d="M122.302 170.414H67.4207C65.152 170.414 63.3047 168.566 63.3047 166.298C63.3047 164.029 65.152 162.182 67.4207 162.182H122.302C124.57 162.182 126.418 164.029 126.418 166.298C126.418 168.566 124.57 170.414 122.302 170.414ZM67.4207 164.926C66.6662 164.926 66.0487 165.541 66.0487 166.298C66.0487 167.055 66.6662 167.67 67.4207 167.67H122.302C123.056 167.67 123.674 167.055 123.674 166.298C123.674 165.541 123.056 164.926 122.302 164.926H67.4207Z" fill="white"/>
<path d="M92.1128 104.557H1.55952C0.802447 104.557 0.1875 103.942 0.1875 103.185V1.65522C0.1875 0.89815 0.802447 0.283203 1.55952 0.283203H92.1128C92.8699 0.283203 93.4848 0.89815 93.4848 1.65522V103.185C93.4848 103.942 92.8699 104.557 92.1128 104.557ZM2.92997 101.813H90.7392V3.02724H2.92997V101.813Z" fill="white"/>
<path d="M155.222 33.2119H111.317C110.56 33.2119 109.945 32.5969 109.945 31.8399V7.1435C109.945 6.38643 110.56 5.77148 111.317 5.77148H155.222C155.979 5.77148 156.594 6.38643 156.594 7.1435V31.8399C156.594 32.5969 155.979 33.2119 155.222 33.2119ZM112.691 30.4678H153.852V8.51552H112.691V30.4678Z" fill="white"/>
<path d="M152.485 68.8823H100.349C99.5915 68.8823 98.9766 68.2674 98.9766 67.5103V56.5341C98.9766 55.7771 99.5915 55.1621 100.349 55.1621H152.485C153.242 55.1621 153.857 55.7771 153.857 56.5341V67.5103C153.857 68.2674 153.242 68.8823 152.485 68.8823ZM101.719 66.1383H151.112V57.9061H101.719V66.1383Z" fill="#00ADFF"/>
<path d="M116.797 96.3257H100.333C99.5759 96.3257 98.9609 95.7107 98.9609 94.9536V83.9775C98.9609 83.2204 99.5759 82.6055 100.333 82.6055H116.797C117.554 82.6055 118.169 83.2204 118.169 83.9775V94.9536C118.169 95.7107 117.554 96.3257 116.797 96.3257ZM101.705 93.5816H115.425V85.3495H101.705V93.5816Z" fill="#00ADFF"/>
<path d="M152.484 96.3257H125.044C124.287 96.3257 123.672 95.7107 123.672 94.9536V83.9775C123.672 83.2204 124.287 82.6055 125.044 82.6055H152.484C153.241 82.6055 153.856 83.2204 153.856 83.9775V94.9536C153.856 95.7107 153.241 96.3257 152.484 96.3257ZM126.416 93.5816H151.112V85.3495H126.416V93.5816Z" fill="#00ADFF"/>
<path d="M152.481 112.789H37.2314C36.4743 112.789 35.8594 112.174 35.8594 111.417C35.8594 110.66 36.4743 110.045 37.2314 110.045H152.481C153.238 110.045 153.853 110.66 153.853 111.417C153.853 112.174 153.238 112.789 152.481 112.789Z" fill="#00ADFF"/>
<path d="M152.485 104.555H100.349C99.5915 104.555 98.9766 103.94 98.9766 103.183C98.9766 102.425 99.5915 101.811 100.349 101.811H152.485C153.242 101.811 153.857 102.425 153.857 103.183C153.857 103.94 153.242 104.555 152.485 104.555Z" fill="#00ADFF"/>
<path d="M152.485 77.1171H100.349C99.5915 77.1171 98.9766 76.5021 98.9766 75.7451C98.9766 74.988 99.5915 74.373 100.349 74.373H152.485C153.242 74.373 153.857 74.988 153.857 75.7451C153.857 76.5021 153.242 77.1171 152.485 77.1171Z" fill="#00ADFF"/>
<path d="M18.0163 24.98C14.2324 24.98 11.1562 21.9015 11.1562 18.1199C11.1562 14.3382 14.2323 11.2598 18.0163 11.2598C21.8004 11.2598 24.8764 14.3382 24.8764 18.1199C24.8764 21.9015 21.8004 24.98 18.0163 24.98ZM18.0163 14.0038C15.7476 14.0038 13.9003 15.8511 13.9003 18.1199C13.9003 20.3886 15.7476 22.2359 18.0163 22.2359C20.2851 22.2359 22.1324 20.3886 22.1324 18.1199C22.1324 15.8511 20.2851 14.0038 18.0163 14.0038Z" fill="#00ADFF"/>
<path d="M23.5044 33.2128H12.5283C11.7712 33.2128 11.1562 32.5978 11.1562 31.8408C11.1562 31.0837 11.7712 30.4688 12.5283 30.4688H23.5044C24.2615 30.4688 24.8764 31.0837 24.8764 31.8408C24.8764 32.5978 24.2615 33.2128 23.5044 33.2128Z" fill="#00ADFF"/>
<path d="M53.7016 33.2128H39.9814C39.2243 33.2128 38.6094 32.5978 38.6094 31.8408C38.6094 31.0837 39.2243 30.4688 39.9814 30.4688H53.7016C54.4587 30.4688 55.0736 31.0837 55.0736 31.8408C55.0736 32.5978 54.4587 33.2128 53.7016 33.2128Z" fill="#00ADFF"/>
<path d="M75.6492 24.98C71.8652 24.98 68.7891 21.9015 68.7891 18.1199C68.7891 14.3382 71.8651 11.2598 75.6492 11.2598C79.4332 11.2598 82.5093 14.3382 82.5093 18.1199C82.5093 21.9015 79.4332 24.98 75.6492 24.98ZM75.6492 14.0038C73.3804 14.0038 71.5331 15.8511 71.5331 18.1199C71.5331 20.3886 73.3804 22.2359 75.6492 22.2359C77.9179 22.2359 79.7652 20.3886 79.7652 18.1199C79.7652 15.8511 77.9179 14.0038 75.6492 14.0038Z" fill="#00ADFF"/>
<path d="M81.1372 33.2128H70.1611C69.404 33.2128 68.7891 32.5978 68.7891 31.8408C68.7891 31.0837 69.404 30.4688 70.1611 30.4688H81.1372C81.8943 30.4688 82.5093 31.0837 82.5093 31.8408C82.5093 32.5978 81.8943 33.2128 81.1372 33.2128Z" fill="#00ADFF"/>
<path d="M53.7016 24.98H39.9814C39.2243 24.98 38.6094 24.365 38.6094 23.6079V12.6318C38.6094 11.8747 39.2243 11.2598 39.9814 11.2598H53.7016C54.4587 11.2598 55.0736 11.8747 55.0736 12.6318V23.6079C55.0736 24.365 54.4587 24.98 53.7016 24.98ZM41.3534 22.2359H52.3296V14.0038H41.3534V22.2359Z" fill="#00ADFF"/>
<path d="M81.1449 60.6522H12.5439C11.7868 60.6522 11.1719 60.0373 11.1719 59.2802C11.1719 58.5231 11.7868 57.9082 12.5439 57.9082H81.1449C81.9019 57.9082 82.5169 58.5231 82.5169 59.2802C82.5169 60.0373 81.9019 60.6522 81.1449 60.6522Z" fill="#00ADFF"/>
<path d="M81.1449 93.58H12.5439C11.7868 93.58 11.1719 92.965 11.1719 92.208C11.1719 91.4509 11.7868 90.8359 12.5439 90.8359H81.1449C81.9019 90.8359 82.5169 91.4509 82.5169 92.208C82.5169 92.965 81.9019 93.58 81.1449 93.58Z" fill="#00ADFF"/>
<path d="M141.501 16.7479H136.013C135.256 16.7479 134.641 16.133 134.641 15.3759C134.641 14.6189 135.256 14.0039 136.013 14.0039H141.501C142.258 14.0039 142.873 14.6189 142.873 15.3759C142.873 16.133 142.258 16.7479 141.501 16.7479Z" fill="white"/>
<path d="M146.989 24.9804H136.013C135.256 24.9804 134.641 24.3654 134.641 23.6083C134.641 22.8513 135.256 22.2363 136.013 22.2363H146.989C147.746 22.2363 148.361 22.8513 148.361 23.6083C148.361 24.3654 147.746 24.9804 146.989 24.9804Z" fill="white"/>
<path d="M130.536 24.9801H119.56C118.802 24.9801 118.188 24.3651 118.188 23.608V15.3759C118.188 14.6189 118.802 14.0039 119.56 14.0039H130.536C131.293 14.0039 131.908 14.6189 131.908 15.3759V23.608C131.908 24.3651 131.293 24.9801 130.536 24.9801ZM120.932 22.236H129.164V16.7479H120.932V22.236Z" fill="white"/>
<path d="M75.6469 121.019H61.9267C61.1696 121.019 60.5547 120.404 60.5547 119.647C60.5547 118.89 61.1696 118.275 61.9267 118.275H75.6469C76.404 118.275 77.0189 118.89 77.0189 119.647C77.0189 120.404 76.404 121.019 75.6469 121.019Z" fill="#00ADFF"/>
</svg>
