<svg width="159" height="159" viewBox="0 0 159 159" fill="none" xmlns="http://www.w3.org/2000/svg">
<g filter="url(#filter0_d_2722_112)">
<circle cx="79.5742" cy="79.6699" r="63.9961" fill="url(#paint0_linear_2722_112)"/>
</g>
<path d="M61.4296 74.1486C63.3853 73.8875 65.341 74.5548 66.7275 75.9328L70.2302 79.4143L73.5432 76.1359L68.7561 71.3925C68.0118 70.6527 68.0118 69.4487 68.7561 68.7089C69.5005 67.9691 70.7118 67.9691 71.4561 68.7089L76.2432 73.4668L79.5561 70.1885L76.0388 66.6925C74.6524 65.3145 73.981 63.3562 74.2437 61.4269C74.8275 57.0171 73.4118 52.4042 70.0113 49.0098C66.5378 45.5573 61.7799 44.1648 57.2702 44.832C56.555 44.9336 56.2632 45.8184 56.774 46.3262L61.2837 50.8085C63.4291 52.9409 63.4291 56.3933 61.2837 58.5112L58.5107 61.2673C56.3653 63.3997 52.8918 63.3997 50.761 61.2673L46.2367 56.785C45.7259 56.2772 44.8502 56.5674 44.7334 57.2782C44.0621 61.7605 45.4632 66.4894 48.9367 69.9419C52.3518 73.3218 56.9929 74.7288 61.4296 74.1486Z" fill="white"/>
<path d="M89.4822 80.0527L86.1692 83.3311L105.843 102.885C106.587 103.625 106.587 104.829 105.843 105.569C105.098 106.309 103.887 106.309 103.143 105.569L83.4692 86.0147L80.1562 89.293L100.428 109.442C102.997 111.995 107.156 111.98 109.725 109.427C112.294 106.874 112.294 102.74 109.74 100.187L89.4822 80.0527Z" fill="white"/>
<path d="M97.0878 66.9958H105.83L114.572 49.6322L110.208 45.2949L92.724 53.9695V62.6586L68.964 86.2017L64.6878 81.966L47.4661 99.083C43.8759 102.652 43.8759 108.425 47.4661 111.993C51.0564 115.562 56.8651 115.562 60.4553 111.993L77.677 94.8763L73.3132 90.539L97.0878 66.9958Z" fill="white"/>
<defs>
<filter id="filter0_d_2722_112" x="0.578125" y="0.673828" width="157.992" height="157.992" filterUnits="userSpaceOnUse" color-interpolation-filters="sRGB">
<feFlood flood-opacity="0" result="BackgroundImageFix"/>
<feColorMatrix in="SourceAlpha" type="matrix" values="0 0 0 0 0 0 0 0 0 0 0 0 0 0 0 0 0 0 127 0" result="hardAlpha"/>
<feOffset/>
<feGaussianBlur stdDeviation="7.5"/>
<feComposite in2="hardAlpha" operator="out"/>
<feColorMatrix type="matrix" values="0 0 0 0 0.129412 0 0 0 0 0.611765 0 0 0 0 0.839216 0 0 0 1 0"/>
<feBlend mode="normal" in2="BackgroundImageFix" result="effect1_dropShadow_2722_112"/>
<feBlend mode="normal" in="SourceGraphic" in2="effect1_dropShadow_2722_112" result="shape"/>
</filter>
<linearGradient id="paint0_linear_2722_112" x1="79.5742" y1="15.6738" x2="79.5742" y2="149.605" gradientUnits="userSpaceOnUse">
<stop stop-color="#219CD6"/>
<stop offset="1" stop-color="#115270"/>
</linearGradient>
</defs>
</svg>
