<svg width="172" height="180" viewBox="0 0 172 180" fill="none" xmlns="http://www.w3.org/2000/svg">
<mask id="path-1-inside-1_2706_2995" fill="white">
<path d="M159.069 151.159H13.3575C6.40549 151.159 0.75 145.585 0.75 138.732V127.859C0.75 126.869 1.56427 126.066 2.56837 126.066H169.858C170.863 126.066 171.677 126.869 171.677 127.859V138.732C171.677 145.585 166.021 151.159 159.069 151.159ZM4.38674 129.651V138.732C4.38674 143.608 8.41078 147.575 13.3575 147.575H159.07C164.016 147.575 168.04 143.608 168.04 138.732V129.651H4.38674Z"/>
</mask>
<path d="M159.069 151.159H13.3575C6.40549 151.159 0.75 145.585 0.75 138.732V127.859C0.75 126.869 1.56427 126.066 2.56837 126.066H169.858C170.863 126.066 171.677 126.869 171.677 127.859V138.732C171.677 145.585 166.021 151.159 159.069 151.159ZM4.38674 129.651V138.732C4.38674 143.608 8.41078 147.575 13.3575 147.575H159.07C164.016 147.575 168.04 143.608 168.04 138.732V129.651H4.38674Z" fill="#0092D7"/>
<path d="M4.38674 129.651V125.651H0.386736V129.651H4.38674ZM168.04 129.651H172.04V125.651H168.04V129.651ZM159.069 147.159H13.3575V155.159H159.069V147.159ZM13.3575 147.159C8.5601 147.159 4.75 143.322 4.75 138.732H-3.25C-3.25 147.848 4.25087 155.159 13.3575 155.159V147.159ZM4.75 138.732V127.859H-3.25V138.732H4.75ZM4.75 127.859C4.75 129.132 3.71835 130.066 2.56837 130.066V122.066C-0.589822 122.066 -3.25 124.605 -3.25 127.859H4.75ZM2.56837 130.066H169.858V122.066H2.56837V130.066ZM169.858 130.066C168.708 130.066 167.677 129.132 167.677 127.859H175.677C175.677 124.605 173.017 122.066 169.858 122.066V130.066ZM167.677 127.859V138.732H175.677V127.859H167.677ZM167.677 138.732C167.677 143.321 163.866 147.159 159.069 147.159V155.159C168.175 155.159 175.677 147.848 175.677 138.732H167.677ZM0.386736 129.651V138.732H8.38674V129.651H0.386736ZM0.386736 138.732C0.386736 145.871 6.25617 151.575 13.3575 151.575V143.575C10.5654 143.575 8.38674 141.345 8.38674 138.732H0.386736ZM13.3575 151.575H159.07V143.575H13.3575V151.575ZM159.07 151.575C166.171 151.575 172.04 145.871 172.04 138.732H164.04C164.04 141.345 161.862 143.575 159.07 143.575V151.575ZM172.04 138.732V129.651H164.04V138.732H172.04ZM168.04 125.651H4.38674V133.651H168.04V125.651Z" fill="#FBFBFB" mask="url(#path-1-inside-1_2706_2995)"/>
<mask id="path-3-inside-2_2706_2995" fill="white">
<path d="M169.858 129.651H2.56837C1.56427 129.651 0.75 128.848 0.75 127.858V47.7399C0.75 39.5369 7.52051 32.8633 15.8425 32.8633H79.1224C80.1265 32.8633 80.9408 33.6659 80.9408 34.6556C80.9408 35.6454 80.1265 36.448 79.1224 36.448H15.8425C9.52581 36.448 4.38674 41.5136 4.38674 47.7399V126.066H168.04V47.7399C168.04 41.5136 162.901 36.448 156.584 36.448H115.124C114.12 36.448 113.306 35.6454 113.306 34.6556C113.306 33.6659 114.12 32.8633 115.124 32.8633H156.584C164.906 32.8633 171.677 39.5369 171.677 47.7399V127.858C171.677 128.848 170.863 129.651 169.858 129.651Z"/>
</mask>
<path d="M169.858 129.651H2.56837C1.56427 129.651 0.75 128.848 0.75 127.858V47.7399C0.75 39.5369 7.52051 32.8633 15.8425 32.8633H79.1224C80.1265 32.8633 80.9408 33.6659 80.9408 34.6556C80.9408 35.6454 80.1265 36.448 79.1224 36.448H15.8425C9.52581 36.448 4.38674 41.5136 4.38674 47.7399V126.066H168.04V47.7399C168.04 41.5136 162.901 36.448 156.584 36.448H115.124C114.12 36.448 113.306 35.6454 113.306 34.6556C113.306 33.6659 114.12 32.8633 115.124 32.8633H156.584C164.906 32.8633 171.677 39.5369 171.677 47.7399V127.858C171.677 128.848 170.863 129.651 169.858 129.651Z" fill="#0092D7"/>
<path d="M4.38674 126.066H0.386736V130.066H4.38674V126.066ZM168.04 126.066V130.066H172.04V126.066H168.04ZM169.858 125.651H2.56837V133.651H169.858V125.651ZM2.56837 125.651C3.71835 125.651 4.75 126.585 4.75 127.858H-3.25C-3.25 131.112 -0.589822 133.651 2.56837 133.651V125.651ZM4.75 127.858V47.7399H-3.25V127.858H4.75ZM4.75 47.7399C4.75 41.8002 9.67512 36.8633 15.8425 36.8633V28.8633C5.3659 28.8633 -3.25 37.2737 -3.25 47.7399H4.75ZM15.8425 36.8633H79.1224V28.8633H15.8425V36.8633ZM79.1224 36.8633C77.9719 36.8633 76.9408 35.9292 76.9408 34.6556H84.9408C84.9408 31.4026 82.2811 28.8633 79.1224 28.8633V36.8633ZM76.9408 34.6556C76.9408 33.3821 77.9719 32.448 79.1224 32.448V40.448C82.2811 40.448 84.9408 37.9087 84.9408 34.6556H76.9408ZM79.1224 32.448H15.8425V40.448H79.1224V32.448ZM15.8425 32.448C7.3712 32.448 0.386736 39.2503 0.386736 47.7399H8.38674C8.38674 43.7768 11.6804 40.448 15.8425 40.448V32.448ZM0.386736 47.7399V126.066H8.38674V47.7399H0.386736ZM4.38674 130.066H168.04V122.066H4.38674V130.066ZM172.04 126.066V47.7399H164.04V126.066H172.04ZM172.04 47.7399C172.04 39.2503 165.055 32.448 156.584 32.448V40.448C160.746 40.448 164.04 43.7768 164.04 47.7399H172.04ZM156.584 32.448H115.124V40.448H156.584V32.448ZM115.124 32.448C116.275 32.448 117.306 33.3826 117.306 34.6556H109.306C109.306 37.9081 111.965 40.448 115.124 40.448V32.448ZM117.306 34.6556C117.306 35.9287 116.275 36.8633 115.124 36.8633V28.8633C111.965 28.8633 109.306 31.4031 109.306 34.6556H117.306ZM115.124 36.8633H156.584V28.8633H115.124V36.8633ZM156.584 36.8633C162.751 36.8633 167.677 41.8002 167.677 47.7399H175.677C175.677 37.2737 167.061 28.8633 156.584 28.8633V36.8633ZM167.677 47.7399V127.858H175.677V47.7399H167.677ZM167.677 127.858C167.677 126.585 168.708 125.651 169.858 125.651V133.651C173.017 133.651 175.677 131.112 175.677 127.858H167.677Z" fill="#FBFBFB" mask="url(#path-3-inside-2_2706_2995)"/>
<mask id="path-5-inside-3_2706_2995" fill="white">
<path d="M57.6622 75.341C57.1869 75.341 56.7225 75.1572 56.3763 74.8162C55.9032 74.3499 55.7282 73.6656 55.9206 73.0339L63.6352 47.6864C63.7218 47.4021 63.8782 47.1437 64.0909 46.934L106.522 5.11001C109.269 2.40176 112.922 0.910156 116.808 0.910156C120.693 0.910156 124.346 2.40176 127.094 5.11001C129.842 7.81826 131.355 11.4191 131.355 15.249C131.355 19.0793 129.842 22.6798 127.094 25.3884L84.6636 67.212C84.4508 67.4217 84.1886 67.5762 83.9002 67.6612L58.1848 75.2654C58.0128 75.3167 57.8368 75.341 57.6622 75.341ZM66.9865 49.149L60.3742 70.8756L82.4161 64.3575L124.523 22.8533C126.583 20.8218 127.718 18.1215 127.718 15.249C127.718 12.3766 126.583 9.67586 124.523 7.64476C122.462 5.6133 119.722 4.49487 116.808 4.49487C113.893 4.49487 111.154 5.61366 109.093 7.64476L66.9865 49.149Z"/>
</mask>
<path d="M57.6622 75.341C57.1869 75.341 56.7225 75.1572 56.3763 74.8162C55.9032 74.3499 55.7282 73.6656 55.9206 73.0339L63.6352 47.6864C63.7218 47.4021 63.8782 47.1437 64.0909 46.934L106.522 5.11001C109.269 2.40176 112.922 0.910156 116.808 0.910156C120.693 0.910156 124.346 2.40176 127.094 5.11001C129.842 7.81826 131.355 11.4191 131.355 15.249C131.355 19.0793 129.842 22.6798 127.094 25.3884L84.6636 67.212C84.4508 67.4217 84.1886 67.5762 83.9002 67.6612L58.1848 75.2654C58.0128 75.3167 57.8368 75.341 57.6622 75.341ZM66.9865 49.149L60.3742 70.8756L82.4161 64.3575L124.523 22.8533C126.583 20.8218 127.718 18.1215 127.718 15.249C127.718 12.3766 126.583 9.67586 124.523 7.64476C122.462 5.6133 119.722 4.49487 116.808 4.49487C113.893 4.49487 111.154 5.61366 109.093 7.64476L66.9865 49.149Z" fill="#0092D7"/>
<path d="M56.3763 74.8162L53.5683 77.665L53.5698 77.6664L56.3763 74.8162ZM55.9206 73.0339L59.7471 74.1994L59.7473 74.1986L55.9206 73.0339ZM63.6352 47.6864L59.8087 46.5213L59.8085 46.5217L63.6352 47.6864ZM64.0909 46.934L61.2829 44.0852L61.2829 44.0852L64.0909 46.934ZM106.522 5.11001L109.33 7.95874L109.33 7.95874L106.522 5.11001ZM127.094 5.11001L124.286 7.95874L124.286 7.95892L127.094 5.11001ZM127.094 25.3884L124.286 22.5397L124.286 22.5397L127.094 25.3884ZM84.6636 67.212L87.4715 70.0607L87.4715 70.0607L84.6636 67.212ZM83.9002 67.6612L82.7699 63.8242L82.7659 63.8253L83.9002 67.6612ZM58.1848 75.2654L57.0506 71.4296L57.0425 71.432L58.1848 75.2654ZM66.9865 49.149L64.1785 46.3002L63.4554 47.013L63.1598 47.9843L66.9865 49.149ZM60.3742 70.8756L56.5475 69.7109L54.3845 76.818L61.5085 74.7114L60.3742 70.8756ZM82.4161 64.3575L83.5504 68.1933L84.5108 67.9093L85.224 67.2062L82.4161 64.3575ZM124.523 22.8533L127.331 25.702L127.331 25.7018L124.523 22.8533ZM124.523 7.64476L121.714 10.4932L121.715 10.4935L124.523 7.64476ZM109.093 7.64476L111.901 10.4935L111.901 10.4935L109.093 7.64476ZM57.6622 71.341C58.2132 71.341 58.7639 71.5536 59.1828 71.966L53.5698 77.6664C54.6812 78.7607 56.1606 79.341 57.6622 79.341V71.341ZM59.1843 71.9675C59.7627 72.5377 59.9915 73.3968 59.7471 74.1994L52.0942 71.8685C51.4649 73.9343 52.0436 76.1621 53.5683 77.665L59.1843 71.9675ZM59.7473 74.1986L67.4619 48.8511L59.8085 46.5217L52.0939 71.8693L59.7473 74.1986ZM67.4618 48.8515C67.3538 49.2063 67.1592 49.5261 66.8989 49.7827L61.2829 44.0852C60.5971 44.7613 60.0898 45.598 59.8087 46.5213L67.4618 48.8515ZM66.8989 49.7827L109.33 7.95874L103.714 2.26128L61.2829 44.0852L66.8989 49.7827ZM109.33 7.95874C111.323 5.99403 113.965 4.91016 116.808 4.91016V-3.08984C111.88 -3.08984 107.216 -1.19052 103.714 2.26128L109.33 7.95874ZM116.808 4.91016C119.651 4.91016 122.293 5.99403 124.286 7.95874L129.902 2.26128C126.4 -1.19052 121.736 -3.08984 116.808 -3.08984V4.91016ZM124.286 7.95892C126.277 9.92161 127.355 12.4988 127.355 15.249H135.355C135.355 10.3394 133.406 5.71491 129.902 2.2611L124.286 7.95892ZM127.355 15.249C127.355 17.9995 126.277 20.5765 124.286 22.5397L129.902 28.2371C133.406 24.7831 135.355 20.1591 135.355 15.249H127.355ZM124.286 22.5397L81.8556 64.3633L87.4715 70.0607L129.902 28.2371L124.286 22.5397ZM81.8556 64.3633C82.1134 64.1091 82.4279 63.9249 82.7699 63.8242L85.0305 71.4981C85.9493 71.2275 86.7882 70.7342 87.4715 70.0607L81.8556 64.3633ZM82.7659 63.8253L57.0506 71.4296L59.3191 79.1012L85.0345 71.497L82.7659 63.8253ZM57.0425 71.432C57.2546 71.3688 57.4642 71.341 57.6622 71.341V79.341C58.2094 79.341 58.771 79.2646 59.3272 79.0988L57.0425 71.432ZM63.1598 47.9843L56.5475 69.7109L64.2009 72.0402L70.8132 50.3136L63.1598 47.9843ZM61.5085 74.7114L83.5504 68.1933L81.2818 60.5217L59.2399 67.0398L61.5085 74.7114ZM85.224 67.2062L127.331 25.702L121.715 20.0045L79.6081 61.5088L85.224 67.2062ZM127.331 25.7018C130.147 22.9251 131.718 19.2014 131.718 15.249H123.718C123.718 17.0415 123.019 18.7186 121.714 20.0048L127.331 25.7018ZM131.718 15.249C131.718 11.2969 130.147 7.57263 127.331 4.79603L121.715 10.4935C123.019 11.7791 123.718 13.4563 123.718 15.249H131.718ZM127.331 4.79628C124.515 2.02076 120.764 0.494873 116.808 0.494873V8.49487C118.68 8.49487 120.408 9.20585 121.714 10.4932L127.331 4.79628ZM116.808 0.494873C112.851 0.494873 109.1 2.02137 106.285 4.79603L111.901 10.4935C113.207 9.20595 114.936 8.49487 116.808 8.49487V0.494873ZM106.285 4.79603L64.1785 46.3002L69.7945 51.9977L111.901 10.4935L106.285 4.79603Z" fill="#0099E3" mask="url(#path-5-inside-3_2706_2995)"/>
<mask id="path-7-inside-4_2706_2995" fill="white">
<path d="M71.8037 58.7976C69.7082 58.7976 67.613 58.0114 66.0176 56.4392C62.8275 53.2943 62.8275 48.1775 66.0176 45.0326C66.7275 44.3329 67.8789 44.3329 68.5891 45.0326C69.2994 45.7327 69.2994 46.8673 68.5891 47.5674C66.8166 49.3146 66.8166 52.1572 68.5891 53.9044C70.3617 55.6516 73.2456 55.6516 75.0182 53.9044C75.7288 53.2047 76.8798 53.205 77.5897 53.9044C78.3 54.6045 78.3 55.7394 77.5897 56.4392C75.9946 58.0114 73.8991 58.7976 71.8037 58.7976Z"/>
</mask>
<path d="M71.8037 58.7976C69.7082 58.7976 67.613 58.0114 66.0176 56.4392C62.8275 53.2943 62.8275 48.1775 66.0176 45.0326C66.7275 44.3329 67.8789 44.3329 68.5891 45.0326C69.2994 45.7327 69.2994 46.8673 68.5891 47.5674C66.8166 49.3146 66.8166 52.1572 68.5891 53.9044C70.3617 55.6516 73.2456 55.6516 75.0182 53.9044C75.7288 53.2047 76.8798 53.205 77.5897 53.9044C78.3 54.6045 78.3 55.7394 77.5897 56.4392C75.9946 58.0114 73.8991 58.7976 71.8037 58.7976Z" fill="#0092D7"/>
<path d="M66.0176 56.4392L63.2095 59.2877L63.21 59.2882L66.0176 56.4392ZM66.0176 45.0326L63.2096 42.1839L63.2095 42.184L66.0176 45.0326ZM68.5891 45.0326L71.3971 42.1839L71.3964 42.1832L68.5891 45.0326ZM75.0182 53.9044L72.2116 51.0543L72.2102 51.0557L75.0182 53.9044ZM77.5897 53.9044L80.3977 51.0557L80.397 51.055L77.5897 53.9044ZM77.5897 56.4392L74.7825 53.5897L74.7817 53.5904L77.5897 56.4392ZM71.8037 54.7976C70.7041 54.7976 69.6341 54.3873 68.8253 53.5901L63.21 59.2882C65.592 61.6356 68.7123 62.7976 71.8037 62.7976V54.7976ZM68.8258 53.5906C67.2247 52.0123 67.2247 49.4595 68.8258 47.8812L63.2095 42.184C58.4302 46.8955 58.4302 54.5763 63.2095 59.2877L68.8258 53.5906ZM68.8256 47.8813C67.9778 48.717 66.6284 48.716 65.7819 47.8821L71.3964 42.1832C69.1294 39.9498 65.4772 39.9487 63.2096 42.1839L68.8256 47.8813ZM65.7812 47.8813C64.9021 47.0148 64.9021 45.5852 65.7812 44.7186L71.3971 50.4161C73.6967 48.1494 73.6967 44.4506 71.3971 42.1839L65.7812 47.8813ZM65.7812 44.7186C62.4193 48.0325 62.4193 53.4393 65.7812 56.7532L71.3971 51.0557C71.2139 50.8751 71.2139 50.5967 71.3971 50.4161L65.7812 44.7186ZM65.7812 56.7532C69.111 60.0354 74.4963 60.0354 77.8261 56.7532L72.2102 51.0557C72.1106 51.1539 71.9719 51.2148 71.8037 51.2148C71.6354 51.2148 71.4967 51.1539 71.3971 51.0557L65.7812 56.7532ZM77.8247 56.7546C76.9782 57.5881 75.6296 57.5885 74.7825 56.7539L80.397 51.055C78.13 48.8216 74.4793 48.8213 72.2116 51.0543L77.8247 56.7546ZM74.7817 56.7532C73.903 55.887 73.902 54.4572 74.7825 53.5897L80.397 59.2886C82.6979 57.0217 82.6969 53.322 80.3977 51.0557L74.7817 56.7532ZM74.7817 53.5904C73.9735 54.3871 72.9035 54.7976 71.8037 54.7976V62.7976C74.8948 62.7976 78.0157 61.6358 80.3977 59.2879L74.7817 53.5904Z" fill="#0099E3" mask="url(#path-7-inside-4_2706_2995)"/>
<mask id="path-9-inside-5_2706_2995" fill="white">
<path d="M80.8233 67.6726C78.6376 67.6726 76.5828 66.8334 75.0372 65.3102C73.4916 63.7871 72.6406 61.7614 72.6406 59.607C72.6406 57.4525 73.492 55.4268 75.0372 53.9037L97.6679 31.5971C98.3774 30.8973 99.5296 30.8973 100.239 31.5971C100.949 32.2972 100.949 33.4321 100.239 34.1318L77.6088 56.4384C76.7501 57.2848 76.277 58.41 76.277 59.607C76.277 60.8035 76.7498 61.9291 77.6088 62.7751C78.4674 63.6215 79.609 64.0879 80.8229 64.0879C82.0372 64.0879 83.1788 63.6218 84.0374 62.7751C84.7473 62.0754 85.8991 62.0754 86.609 62.7751C87.3192 63.4752 87.3192 64.6098 86.6093 65.3099C85.0641 66.8334 83.009 67.6726 80.8233 67.6726Z"/>
</mask>
<path d="M80.8233 67.6726C78.6376 67.6726 76.5828 66.8334 75.0372 65.3102C73.4916 63.7871 72.6406 61.7614 72.6406 59.607C72.6406 57.4525 73.492 55.4268 75.0372 53.9037L97.6679 31.5971C98.3774 30.8973 99.5296 30.8973 100.239 31.5971C100.949 32.2972 100.949 33.4321 100.239 34.1318L77.6088 56.4384C76.7501 57.2848 76.277 58.41 76.277 59.607C76.277 60.8035 76.7498 61.9291 77.6088 62.7751C78.4674 63.6215 79.609 64.0879 80.8229 64.0879C82.0372 64.0879 83.1788 63.6218 84.0374 62.7751C84.7473 62.0754 85.8991 62.0754 86.609 62.7751C87.3192 63.4752 87.3192 64.6098 86.6093 65.3099C85.0641 66.8334 83.009 67.6726 80.8233 67.6726Z" fill="#0092D7"/>
<path d="M75.0372 53.9037L72.2293 51.0549L72.2293 51.055L75.0372 53.9037ZM97.6679 31.5971L100.476 34.4458L100.477 34.4451L97.6679 31.5971ZM100.239 31.5971L97.4304 34.4451L97.4311 34.4458L100.239 31.5971ZM100.239 34.1318L97.4318 31.2824L97.4311 31.2831L100.239 34.1318ZM77.6088 56.4384L74.8008 53.5897L74.8008 53.5897L77.6088 56.4384ZM77.6088 62.7751L80.4167 59.9264L80.4155 59.9252L77.6088 62.7751ZM84.0374 62.7751L81.2294 59.9264L81.2288 59.927L84.0374 62.7751ZM86.609 62.7751L83.801 65.6239L86.609 62.7751ZM86.6093 65.3099L89.4176 68.1583L89.418 68.1579L86.6093 65.3099ZM80.8233 63.6726C79.6803 63.6726 78.6364 63.2412 77.8449 62.4612L72.2296 68.1593C74.5293 70.4256 77.5949 71.6726 80.8233 71.6726V63.6726ZM77.8449 62.4612C77.0562 61.684 76.6406 60.6821 76.6406 59.607H68.6406C68.6406 62.8406 69.927 65.8902 72.2296 68.1593L77.8449 62.4612ZM76.6406 59.607C76.6406 58.5322 77.0563 57.53 77.8452 56.7524L72.2293 51.055C69.9276 53.3236 68.6406 56.3729 68.6406 59.607H76.6406ZM77.8452 56.7524L100.476 34.4458L94.86 28.7483L72.2293 51.0549L77.8452 56.7524ZM100.477 34.4451C99.6287 35.2813 98.2783 35.2813 97.4304 34.4451L103.048 28.7491C100.781 26.5133 97.1262 26.5133 94.8592 28.7491L100.477 34.4451ZM97.4311 34.4458C96.5524 33.5797 96.5514 32.1498 97.4318 31.2824L103.046 36.9813C105.347 34.7143 105.346 31.0147 103.047 28.7483L97.4311 34.4458ZM97.4311 31.2831L74.8008 53.5897L80.4167 59.2872L103.047 36.9805L97.4311 31.2831ZM74.8008 53.5897C73.1862 55.1812 72.277 57.3298 72.277 59.607H80.277C80.277 59.4903 80.314 59.3884 80.4167 59.2872L74.8008 53.5897ZM72.277 59.607C72.277 61.8828 73.1852 64.0327 74.802 65.6251L80.4155 59.9252C80.3144 59.8256 80.277 59.7243 80.277 59.607H72.277ZM74.8008 65.6239C76.4133 67.2133 78.5657 68.0879 80.8229 68.0879V60.0879C80.6522 60.0879 80.5215 60.0297 80.4167 59.9264L74.8008 65.6239ZM80.8229 68.0879C83.0795 68.0879 85.2326 67.2143 86.846 65.6233L81.2288 59.927C81.125 60.0294 80.9949 60.0879 80.8229 60.0879V68.0879ZM86.8454 65.6239C85.998 66.4592 84.6484 66.4592 83.801 65.6239L89.4169 59.9264C87.1497 57.6916 83.4966 57.6916 81.2294 59.9264L86.8454 65.6239ZM83.801 65.6239C82.922 64.7575 82.922 63.3284 83.8006 62.4619L89.418 68.1579C91.7165 65.8912 91.7164 62.193 89.4169 59.9264L83.801 65.6239ZM83.801 62.4615C83.0103 63.2411 81.9665 63.6726 80.8233 63.6726V71.6726C84.0515 71.6726 87.1179 70.4257 89.4176 68.1583L83.801 62.4615Z" fill="#0099E3" mask="url(#path-9-inside-5_2706_2995)"/>
<path d="M102.788 11.6037C102.788 11.6037 102.788 11.6038 102.788 11.6038L102.788 11.6037Z" fill="#0092D7" stroke="#0099E3" stroke-width="4"/>
<mask id="path-12-inside-6_2706_2995" fill="white">
<path d="M126.212 111.73H97.1178C91.1019 111.73 86.2076 106.906 86.2076 100.976C86.2076 95.0463 91.1019 90.222 97.1178 90.222H137.122C141.132 90.222 144.395 87.0058 144.395 83.0525V82.512C144.395 78.5587 141.132 75.3425 137.122 75.3425H57.6621C56.658 75.3425 55.8438 74.5399 55.8438 73.5502C55.8438 72.5604 56.658 71.7578 57.6621 71.7578H137.122C143.138 71.7578 148.032 76.5821 148.032 82.512V83.0525C148.032 88.9824 143.138 93.8067 137.122 93.8067H97.1178C93.1072 93.8067 89.8443 97.0229 89.8443 100.976C89.8443 104.929 93.1072 108.146 97.1178 108.146H126.212C127.216 108.146 128.03 108.948 128.03 109.938C128.03 110.928 127.216 111.73 126.212 111.73Z"/>
</mask>
<path d="M126.212 111.73H97.1178C91.1019 111.73 86.2076 106.906 86.2076 100.976C86.2076 95.0463 91.1019 90.222 97.1178 90.222H137.122C141.132 90.222 144.395 87.0058 144.395 83.0525V82.512C144.395 78.5587 141.132 75.3425 137.122 75.3425H57.6621C56.658 75.3425 55.8438 74.5399 55.8438 73.5502C55.8438 72.5604 56.658 71.7578 57.6621 71.7578H137.122C143.138 71.7578 148.032 76.5821 148.032 82.512V83.0525C148.032 88.9824 143.138 93.8067 137.122 93.8067H97.1178C93.1072 93.8067 89.8443 97.0229 89.8443 100.976C89.8443 104.929 93.1072 108.146 97.1178 108.146H126.212C127.216 108.146 128.03 108.948 128.03 109.938C128.03 110.928 127.216 111.73 126.212 111.73Z" fill="#0092D7"/>
<path d="M126.212 107.73H97.1178V115.73H126.212V107.73ZM97.1178 107.73C93.2565 107.73 90.2076 104.643 90.2076 100.976H82.2076C82.2076 109.169 88.9473 115.73 97.1178 115.73V107.73ZM90.2076 100.976C90.2076 97.3096 93.2565 94.222 97.1178 94.222V86.222C88.9473 86.222 82.2076 92.783 82.2076 100.976H90.2076ZM97.1178 94.222H137.122V86.222H97.1178V94.222ZM137.122 94.222C143.287 94.222 148.395 89.269 148.395 83.0525H140.395C140.395 84.7425 138.978 86.222 137.122 86.222V94.222ZM148.395 83.0525V82.512H140.395V83.0525H148.395ZM148.395 82.512C148.395 76.2955 143.287 71.3425 137.122 71.3425V79.3425C138.978 79.3425 140.395 80.822 140.395 82.512H148.395ZM137.122 71.3425H57.6621V79.3425H137.122V71.3425ZM57.6621 71.3425C58.8126 71.3425 59.8438 72.2766 59.8438 73.5502H51.8438C51.8438 76.8032 54.5034 79.3425 57.6621 79.3425V71.3425ZM59.8438 73.5502C59.8438 74.8237 58.8126 75.7578 57.6621 75.7578V67.7578C54.5034 67.7578 51.8438 70.2972 51.8438 73.5502H59.8438ZM57.6621 75.7578H137.122V67.7578H57.6621V75.7578ZM137.122 75.7578C140.983 75.7578 144.032 78.8454 144.032 82.512H152.032C152.032 74.3188 145.292 67.7578 137.122 67.7578V75.7578ZM144.032 82.512V83.0525H152.032V82.512H144.032ZM144.032 83.0525C144.032 86.7191 140.983 89.8067 137.122 89.8067V97.8067C145.292 97.8067 152.032 91.2456 152.032 83.0525H144.032ZM137.122 89.8067H97.1178V97.8067H137.122V89.8067ZM97.1178 89.8067C90.9526 89.8067 85.8443 94.7596 85.8443 100.976H93.8443C93.8443 99.2862 95.2618 97.8067 97.1178 97.8067V89.8067ZM85.8443 100.976C85.8443 107.193 90.9526 112.146 97.1178 112.146V104.146C95.2618 104.146 93.8443 102.666 93.8443 100.976H85.8443ZM97.1178 112.146H126.212V104.146H97.1178V112.146ZM126.212 112.146C125.062 112.146 124.03 111.211 124.03 109.938H132.03C132.03 106.685 129.371 104.146 126.212 104.146V112.146ZM124.03 109.938C124.03 108.665 125.062 107.73 126.212 107.73V115.73C129.371 115.73 132.03 113.191 132.03 109.938H124.03Z" fill="#0099E3" mask="url(#path-12-inside-6_2706_2995)"/>
<mask id="path-14-inside-7_2706_2995" fill="white">
<path d="M57.1194 113.518H2.56837C1.56427 113.518 0.75 112.716 0.75 111.726C0.75 110.736 1.56427 109.934 2.56837 109.934H57.1194C58.1235 109.934 58.9378 110.736 58.9378 111.726C58.9378 112.716 58.1235 113.518 57.1194 113.518Z"/>
</mask>
<path d="M57.1194 113.518H2.56837C1.56427 113.518 0.75 112.716 0.75 111.726C0.75 110.736 1.56427 109.934 2.56837 109.934H57.1194C58.1235 109.934 58.9378 110.736 58.9378 111.726C58.9378 112.716 58.1235 113.518 57.1194 113.518Z" fill="#0092D7"/>
<path d="M57.1194 109.518H2.56837V117.518H57.1194V109.518ZM2.56837 109.518C3.71835 109.518 4.75 110.452 4.75 111.726H-3.25C-3.25 114.98 -0.589822 117.518 2.56837 117.518V109.518ZM4.75 111.726C4.75 113 3.71835 113.934 2.56837 113.934V105.934C-0.589822 105.934 -3.25 108.472 -3.25 111.726H4.75ZM2.56837 113.934H57.1194V105.934H2.56837V113.934ZM57.1194 113.934C55.9694 113.934 54.9378 113 54.9378 111.726H62.9378C62.9378 108.472 60.2776 105.934 57.1194 105.934V113.934ZM54.9378 111.726C54.9378 110.452 55.9694 109.518 57.1194 109.518V117.518C60.2776 117.518 62.9378 114.98 62.9378 111.726H54.9378Z" fill="#FBFBFB" mask="url(#path-14-inside-7_2706_2995)"/>
<mask id="path-16-inside-8_2706_2995" fill="white">
<path d="M57.1194 102.768H2.56837C1.56427 102.768 0.75 101.966 0.75 100.976C0.75 99.9859 1.56427 99.1836 2.56837 99.1836H57.1194C58.1235 99.1836 58.9378 99.9859 58.9378 100.976C58.9378 101.966 58.1235 102.768 57.1194 102.768Z"/>
</mask>
<path d="M57.1194 102.768H2.56837C1.56427 102.768 0.75 101.966 0.75 100.976C0.75 99.9859 1.56427 99.1836 2.56837 99.1836H57.1194C58.1235 99.1836 58.9378 99.9859 58.9378 100.976C58.9378 101.966 58.1235 102.768 57.1194 102.768Z" fill="#0092D7"/>
<path d="M57.1194 98.7683H2.56837V106.768H57.1194V98.7683ZM2.56837 98.7683C3.71835 98.7683 4.75 99.7023 4.75 100.976H-3.25C-3.25 104.23 -0.589822 106.768 2.56837 106.768V98.7683ZM4.75 100.976C4.75 102.25 3.71835 103.184 2.56837 103.184V95.1836C-0.589822 95.1836 -3.25 97.7221 -3.25 100.976H4.75ZM2.56837 103.184H57.1194V95.1836H2.56837V103.184ZM57.1194 103.184C55.9694 103.184 54.9378 102.25 54.9378 100.976H62.9378C62.9378 97.7221 60.2776 95.1836 57.1194 95.1836V103.184ZM54.9378 100.976C54.9378 99.7023 55.9694 98.7683 57.1194 98.7683V106.768C60.2776 106.768 62.9378 104.23 62.9378 100.976H54.9378Z" fill="#FBFBFB" mask="url(#path-16-inside-8_2706_2995)"/>
<mask id="path-18-inside-9_2706_2995" fill="white">
<path d="M57.1194 92.0125H2.56837C1.56427 92.0125 0.75 91.2102 0.75 90.2201C0.75 89.2304 1.56427 88.4277 2.56837 88.4277H57.1194C58.1235 88.4277 58.9378 89.2304 58.9378 90.2201C58.9378 91.2102 58.1235 92.0125 57.1194 92.0125Z"/>
</mask>
<path d="M57.1194 92.0125H2.56837C1.56427 92.0125 0.75 91.2102 0.75 90.2201C0.75 89.2304 1.56427 88.4277 2.56837 88.4277H57.1194C58.1235 88.4277 58.9378 89.2304 58.9378 90.2201C58.9378 91.2102 58.1235 92.0125 57.1194 92.0125Z" fill="#0092D7"/>
<path d="M57.1194 88.0125H2.56837V96.0125H57.1194V88.0125ZM2.56837 88.0125C3.71837 88.0125 4.75 88.9464 4.75 90.2201H-3.25C-3.25 93.474 -0.589838 96.0125 2.56837 96.0125V88.0125ZM4.75 90.2201C4.75 91.4936 3.71888 92.4277 2.56837 92.4277V84.4277C-0.590347 84.4277 -3.25 86.9671 -3.25 90.2201H4.75ZM2.56837 92.4277H57.1194V84.4277H2.56837V92.4277ZM57.1194 92.4277C55.9689 92.4277 54.9378 91.4936 54.9378 90.2201H62.9378C62.9378 86.9671 60.2781 84.4277 57.1194 84.4277V92.4277ZM54.9378 90.2201C54.9378 88.9464 55.9694 88.0125 57.1194 88.0125V96.0125C60.2776 96.0125 62.9378 93.474 62.9378 90.2201H54.9378Z" fill="#FBFBFB" mask="url(#path-18-inside-9_2706_2995)"/>
<mask id="path-20-inside-10_2706_2995" fill="white">
<path d="M106.205 172.665H66.2012C65.1971 172.665 64.3828 171.863 64.3828 170.873V149.365C64.3828 148.375 65.1971 147.572 66.2012 147.572H106.205C107.21 147.572 108.024 148.375 108.024 149.365V170.873C108.024 171.863 107.21 172.665 106.205 172.665ZM68.0195 169.081H104.387V151.157H68.0195V169.081Z"/>
</mask>
<path d="M106.205 172.665H66.2012C65.1971 172.665 64.3828 171.863 64.3828 170.873V149.365C64.3828 148.375 65.1971 147.572 66.2012 147.572H106.205C107.21 147.572 108.024 148.375 108.024 149.365V170.873C108.024 171.863 107.21 172.665 106.205 172.665ZM68.0195 169.081H104.387V151.157H68.0195V169.081Z" fill="#0092D7"/>
<path d="M68.0195 169.081H64.0195V173.081H68.0195V169.081ZM104.387 169.081V173.081H108.387V169.081H104.387ZM104.387 151.157H108.387V147.157H104.387V151.157ZM68.0195 151.157V147.157H64.0195V151.157H68.0195ZM106.205 168.665H66.2012V176.665H106.205V168.665ZM66.2012 168.665C67.3512 168.665 68.3828 169.599 68.3828 170.873H60.3828C60.3828 174.127 63.043 176.665 66.2012 176.665V168.665ZM68.3828 170.873V149.365H60.3828V170.873H68.3828ZM68.3828 149.365C68.3828 150.638 67.3512 151.572 66.2012 151.572V143.572C63.043 143.572 60.3828 146.111 60.3828 149.365H68.3828ZM66.2012 151.572H106.205V143.572H66.2012V151.572ZM106.205 151.572C105.055 151.572 104.024 150.638 104.024 149.365H112.024C112.024 146.111 109.364 143.572 106.205 143.572V151.572ZM104.024 149.365V170.873H112.024V149.365H104.024ZM104.024 170.873C104.024 169.6 105.055 168.665 106.205 168.665V176.665C109.364 176.665 112.024 174.126 112.024 170.873H104.024ZM68.0195 173.081H104.387V165.081H68.0195V173.081ZM108.387 169.081V151.157H100.387V169.081H108.387ZM104.387 147.157H68.0195V155.157H104.387V147.157ZM64.0195 151.157V169.081H72.0195V151.157H64.0195Z" fill="#FBFBFB" mask="url(#path-20-inside-10_2706_2995)"/>
<mask id="path-22-inside-11_2706_2995" fill="white">
<path d="M97.1075 172.665H75.2871C74.283 172.665 73.4688 171.863 73.4688 170.873V149.365C73.4688 148.375 74.283 147.572 75.2871 147.572H97.1075C98.112 147.572 98.9259 148.375 98.9259 149.365V170.873C98.9259 171.863 98.112 172.665 97.1075 172.665ZM77.1055 169.081H95.2892V151.157H77.1055V169.081Z"/>
</mask>
<path d="M97.1075 172.665H75.2871C74.283 172.665 73.4688 171.863 73.4688 170.873V149.365C73.4688 148.375 74.283 147.572 75.2871 147.572H97.1075C98.112 147.572 98.9259 148.375 98.9259 149.365V170.873C98.9259 171.863 98.112 172.665 97.1075 172.665ZM77.1055 169.081H95.2892V151.157H77.1055V169.081Z" fill="#0092D7"/>
<path d="M77.1055 169.081H73.1055V173.081H77.1055V169.081ZM95.2892 169.081V173.081H99.2892V169.081H95.2892ZM95.2892 151.157H99.2892V147.157H95.2892V151.157ZM77.1055 151.157V147.157H73.1055V151.157H77.1055ZM97.1075 168.665H75.2871V176.665H97.1075V168.665ZM75.2871 168.665C76.4371 168.665 77.4688 169.599 77.4688 170.873H69.4688C69.4688 174.127 72.1289 176.665 75.2871 176.665V168.665ZM77.4688 170.873V149.365H69.4688V170.873H77.4688ZM77.4688 149.365C77.4688 150.638 76.4371 151.572 75.2871 151.572V143.572C72.1289 143.572 69.4688 146.111 69.4688 149.365H77.4688ZM75.2871 151.572H97.1075V143.572H75.2871V151.572ZM97.1075 151.572C95.9574 151.572 94.9259 150.638 94.9259 149.365H102.926C102.926 146.111 100.267 143.572 97.1075 143.572V151.572ZM94.9259 149.365V170.873H102.926V149.365H94.9259ZM94.9259 170.873C94.9259 169.6 95.9574 168.665 97.1075 168.665V176.665C100.267 176.665 102.926 174.126 102.926 170.873H94.9259ZM77.1055 173.081H95.2892V165.081H77.1055V173.081ZM99.2892 169.081V151.157H91.2892V169.081H99.2892ZM95.2892 147.157H77.1055V155.157H95.2892V147.157ZM73.1055 151.157V169.081H81.1055V151.157H73.1055Z" fill="#FBFBFB" mask="url(#path-22-inside-11_2706_2995)"/>
<mask id="path-24-inside-12_2706_2995" fill="white">
<path d="M111.658 179.836H60.7442C57.7362 179.836 55.2891 177.424 55.2891 174.459C55.2891 171.494 57.7362 169.082 60.7442 169.082H111.658C114.666 169.082 117.114 171.494 117.114 174.459C117.114 177.424 114.666 179.836 111.658 179.836ZM60.7442 172.667C59.7415 172.667 58.9258 173.471 58.9258 174.459C58.9258 175.447 59.7415 176.251 60.7442 176.251H111.658C112.661 176.251 113.477 175.447 113.477 174.459C113.477 173.471 112.661 172.667 111.658 172.667H60.7442Z"/>
</mask>
<path d="M111.658 179.836H60.7442C57.7362 179.836 55.2891 177.424 55.2891 174.459C55.2891 171.494 57.7362 169.082 60.7442 169.082H111.658C114.666 169.082 117.114 171.494 117.114 174.459C117.114 177.424 114.666 179.836 111.658 179.836ZM60.7442 172.667C59.7415 172.667 58.9258 173.471 58.9258 174.459C58.9258 175.447 59.7415 176.251 60.7442 176.251H111.658C112.661 176.251 113.477 175.447 113.477 174.459C113.477 173.471 112.661 172.667 111.658 172.667H60.7442Z" fill="#0092D7"/>
<path d="M111.658 175.836H60.7442V183.836H111.658V175.836ZM60.7442 175.836C59.8908 175.836 59.2891 175.161 59.2891 174.459H51.2891C51.2891 179.687 55.5816 183.836 60.7442 183.836V175.836ZM59.2891 174.459C59.2891 173.757 59.8908 173.082 60.7442 173.082V165.082C55.5816 165.082 51.2891 169.231 51.2891 174.459H59.2891ZM60.7442 173.082H111.658V165.082H60.7442V173.082ZM111.658 173.082C112.512 173.082 113.114 173.757 113.114 174.459H121.114C121.114 169.231 116.821 165.082 111.658 165.082V173.082ZM113.114 174.459C113.114 175.161 112.512 175.836 111.658 175.836V183.836C116.821 183.836 121.114 179.687 121.114 174.459H113.114ZM60.7442 168.667C57.5869 168.667 54.9258 171.208 54.9258 174.459H62.9258C62.9258 175.734 61.8961 176.667 60.7442 176.667V168.667ZM54.9258 174.459C54.9258 177.711 57.5869 180.251 60.7442 180.251V172.251C61.8961 172.251 62.9258 173.184 62.9258 174.459H54.9258ZM60.7442 180.251H111.658V172.251H60.7442V180.251ZM111.658 180.251C114.816 180.251 117.477 177.711 117.477 174.459H109.477C109.477 173.184 110.507 172.251 111.658 172.251V180.251ZM117.477 174.459C117.477 171.208 114.816 168.667 111.658 168.667V176.667C110.507 176.667 109.477 175.734 109.477 174.459H117.477ZM111.658 168.667H60.7442V176.667H111.658V168.667Z" fill="#FBFBFB" mask="url(#path-24-inside-12_2706_2995)"/>
</svg>
