<svg width="123" height="124" viewBox="0 0 123 124" fill="none" xmlns="http://www.w3.org/2000/svg">
<g filter="url(#filter0_i_2706_2946)">
<rect x="10" y="10" width="102.061" height="103.563" rx="51.0305" fill="#1A1A1A"/>
<rect x="5" y="5" width="112.061" height="113.563" rx="56.0305" stroke="#4D4D4D" stroke-width="10"/>
<g filter="url(#filter1_i_2706_2946)">
<path d="M62.3929 81.2704C55.3759 81.2699 48.399 81.2702 41.4221 81.2683C39.8069 81.2679 38.2927 80.9111 36.976 79.9299C35.1684 78.5829 34.0995 76.7991 34.0631 74.5242C33.9428 67.0139 34.0361 59.5025 34.0118 51.9916C34.0072 50.564 34.108 49.1619 34.8077 47.8726C35.9851 45.703 37.7808 44.4307 40.2399 44.101C40.6403 44.0473 41.0376 44.0362 41.4378 44.0361C50.7537 44.0354 60.0696 44.0351 69.3855 44.0381C69.5647 44.0381 69.7564 43.9839 69.9278 44.0993C69.9464 44.2999 69.7819 44.381 69.6813 44.4925C68.5271 45.7719 67.3613 47.0408 66.2164 48.3284C65.988 48.5853 65.7475 48.6643 65.4171 48.6639C57.6115 48.6563 49.8059 48.6565 42.0004 48.6592C41.4819 48.6594 40.9626 48.6168 40.449 48.771C39.4093 49.0832 38.6668 49.9973 38.6662 51.0762C38.6621 58.7882 38.664 66.5002 38.6729 74.2122C38.6742 75.3504 39.4889 76.3224 40.5975 76.5627C40.7654 76.5991 40.9423 76.6064 41.115 76.6064C54.3604 76.6081 67.6058 76.5983 80.8511 76.6225C82.1576 76.6248 83.4133 75.4745 83.4067 74.1026C83.3764 67.7808 83.3961 61.4588 83.3979 55.1368C83.3983 53.8671 83.3984 52.5974 83.3999 51.3276C83.4015 49.9285 82.7087 49.0504 81.3398 48.7212C81.2602 48.7021 81.1835 48.6837 81.1242 48.5715C81.367 48.234 81.7238 47.9923 82.0325 47.7065C82.8461 46.9531 83.6809 46.2226 84.4942 45.4689C84.729 45.2513 84.9138 45.2057 85.1846 45.4173C86.874 46.7375 87.8391 48.4401 88.0117 50.5925C88.0696 51.3145 88.0556 52.0341 88.056 52.7546C88.0594 59.7182 88.0515 66.6817 88.061 73.6452C88.0633 75.3467 87.7331 76.9416 86.6949 78.3265C85.381 80.0791 83.64 81.0667 81.4358 81.2254C80.4471 81.2967 79.4593 81.2651 78.4713 81.2663C73.1252 81.2731 67.7791 81.2701 62.3929 81.2704Z" fill="#00A1EE"/>
<path d="M72.4112 89.5622C60.3822 89.5621 48.3933 89.561 36.4044 89.5636C35.5873 89.5638 34.9065 89.2925 34.4424 88.6044C33.9215 87.8321 33.8701 86.9973 34.2814 86.171C34.7099 85.3102 35.4519 84.9354 36.4067 84.9355C51.8038 84.9378 67.2009 84.937 82.598 84.9369C83.6405 84.9369 84.6831 84.934 85.7256 84.9381C87.0559 84.9433 88.0379 85.9491 88.0316 87.293C88.0255 88.5766 87.032 89.5582 85.7232 89.5592C81.2993 89.5626 76.8753 89.5616 72.4112 89.5622Z" fill="#00A1EE"/>
<path d="M80.913 45.3454C78.4027 47.63 75.9157 49.898 73.4239 52.1607C71.4857 53.9207 69.5389 55.6711 67.6019 57.4325C67.1046 57.8848 66.5013 57.9498 65.9558 57.7089C65.005 57.2889 64.2633 56.6008 63.9547 55.5555C63.794 55.0109 63.9429 54.5238 64.3179 54.1095C67.3922 50.7119 70.4678 47.3155 73.5452 43.9206C74.8642 42.4656 76.1918 41.0184 77.5063 39.5594C77.7206 39.3216 77.8549 39.279 78.1082 39.5362C79.4659 40.9156 80.8416 42.2773 82.2194 43.6367C82.4456 43.8599 82.4452 44.0054 82.1939 44.2106C81.7598 44.5651 81.3527 44.9528 80.913 45.3454Z" fill="#00A1EE"/>
<path d="M63.3496 64.907C62.2286 65.8987 60.9093 66.438 59.5159 66.8C57.8069 67.2442 56.0675 67.5077 54.2954 67.5028C54.154 67.5024 54.001 67.5443 53.8594 67.4273C53.8679 67.1462 54.0348 66.908 54.1162 66.6452C54.5949 65.0998 54.7673 63.4886 55.1475 61.9227C55.3905 60.9219 55.6724 59.9301 56.2161 59.0437C57.2966 57.282 58.8964 56.4533 60.9394 56.6467C62.9653 56.8385 64.4001 57.9358 65.1089 59.8556C65.5459 61.0393 65.3223 62.2017 64.6802 63.2758C64.3226 63.8741 63.8915 64.4188 63.3496 64.907Z" fill="#00A1EE"/>
<path d="M80.2827 40.6809C79.7136 40.1148 79.172 39.561 78.6114 39.027C78.3789 38.8055 78.3148 38.6596 78.5733 38.3819C79.8102 37.0532 81.0257 35.7044 82.2374 34.3526C82.6102 33.9367 83.0616 33.9567 83.5268 34.0704C84.0678 34.2026 84.5506 34.481 84.9559 34.8517C85.7232 35.5538 86.4964 36.2558 87.1196 37.0966C87.2928 37.3303 87.4568 37.5892 87.548 37.8622C87.8518 38.772 87.8531 39.1033 87.1603 39.7139C85.8586 40.861 84.5755 42.0293 83.29 43.1946C83.1101 43.3576 82.9762 43.3936 82.7873 43.2009C81.9651 42.3617 81.1318 41.5334 80.2827 40.6809Z" fill="#00A1EE"/>
</g>
</g>
<defs>
<filter id="filter0_i_2706_2946" x="0" y="0" width="133.062" height="134.562" filterUnits="userSpaceOnUse" color-interpolation-filters="sRGB">
<feFlood flood-opacity="0" result="BackgroundImageFix"/>
<feBlend mode="normal" in="SourceGraphic" in2="BackgroundImageFix" result="shape"/>
<feColorMatrix in="SourceAlpha" type="matrix" values="0 0 0 0 0 0 0 0 0 0 0 0 0 0 0 0 0 0 127 0" result="hardAlpha"/>
<feMorphology radius="2" operator="erode" in="SourceAlpha" result="effect1_innerShadow_2706_2946"/>
<feOffset dx="16" dy="12"/>
<feGaussianBlur stdDeviation="4.5"/>
<feComposite in2="hardAlpha" operator="arithmetic" k2="-1" k3="1"/>
<feColorMatrix type="matrix" values="0 0 0 0 1 0 0 0 0 1 0 0 0 0 1 0 0 0 0.1 0"/>
<feBlend mode="normal" in2="shape" result="effect1_innerShadow_2706_2946"/>
</filter>
<filter id="filter1_i_2706_2946" x="34" y="34" width="54.0625" height="59.5645" filterUnits="userSpaceOnUse" color-interpolation-filters="sRGB">
<feFlood flood-opacity="0" result="BackgroundImageFix"/>
<feBlend mode="normal" in="SourceGraphic" in2="BackgroundImageFix" result="shape"/>
<feColorMatrix in="SourceAlpha" type="matrix" values="0 0 0 0 0 0 0 0 0 0 0 0 0 0 0 0 0 0 127 0" result="hardAlpha"/>
<feOffset dy="4"/>
<feGaussianBlur stdDeviation="2"/>
<feComposite in2="hardAlpha" operator="arithmetic" k2="-1" k3="1"/>
<feColorMatrix type="matrix" values="0 0 0 0 0 0 0 0 0 0 0 0 0 0 0 0 0 0 0.25 0"/>
<feBlend mode="normal" in2="shape" result="effect1_innerShadow_2706_2946"/>
</filter>
</defs>
</svg>
