<svg width="413" height="662" viewBox="0 0 413 662" fill="none" xmlns="http://www.w3.org/2000/svg">
<mask id="mask0_2736_92" style="mask-type:alpha" maskUnits="userSpaceOnUse" x="0" y="0" width="413" height="662">
<path fill-rule="evenodd" clip-rule="evenodd" d="M170.462 28.1941L208.101 6.51606L245.741 28.1941V71.5289L208.101 93.2069L170.462 71.5289V28.1941ZM208.101 0.746094L250.741 25.3038V72.4586L292.296 96.3917V144.191L332.811 167.524V216.471L371.503 238.755V284.24L412.117 307.478V356.593L371.503 379.831V425.128L332.811 447.412V496.218L292.296 519.552V567.472L251.422 591.013V636.628L208.782 661.186L167.571 637.451L126.36 661.186L85.1492 637.451L43.9382 661.186L1.29846 636.628V587.513L42.22 563.945V519.61L1.60355 496.218V447.103L42.22 423.71V382.417L1.32193 358.862V309.747L42.4234 286.075V240.866L0.610046 216.784V167.669L42.4234 143.587V98.5009L0.610046 74.4191V25.3038L43.2498 0.746094L84.4608 24.4809L125.672 0.746094L166.887 24.4831L208.101 0.746094ZM126.075 375.192L88.736 353.688V312.637L126.376 290.959L164.016 312.637V353.341L126.075 375.192ZM42.22 376.013V376.647L6.32193 355.972V312.637L43.9617 290.959L81.6015 312.637V353.332L42.22 376.013ZM122.5 422.238V381.188L85.1688 359.688L47.22 381.544V422.238L84.8597 443.916L122.5 422.238ZM251.445 358.862L212.017 381.571V422.218L249.657 443.896L286.224 422.836V378.863L251.445 358.833V358.862ZM204.929 381.188L167.591 359.683L129.65 381.535V422.238L167.289 443.916L204.929 422.238V381.188ZM171.166 353.688V312.637L208.805 290.959L246.445 312.637V353.285L208.456 375.164L171.166 353.688ZM252.555 310.759V353.105L289.277 374.254L326.275 352.946V310.937L289.26 289.619L252.555 310.759ZM292.296 284.13V241.027L328.863 219.967L366.503 241.645V284.461L329.566 305.595L292.296 284.13ZM212.017 284.98L249.317 306.463L286.224 285.207V241.027L249.657 219.967L212.017 241.645V284.98ZM369.811 375.038L332.835 353.742V310.141L369.648 288.939L407.117 310.377V353.693L369.811 375.038ZM366.503 422.238V379.61L329.566 358.476L292.296 379.94V422.856L328.863 443.916L366.503 422.238ZM85.0631 77.604L47.4234 99.282V142.617L85.0631 164.295L122.703 142.617V99.282L85.0631 77.604ZM212.017 99.282L249.657 77.604L287.296 99.282V142.617L249.657 164.295L212.017 142.617V99.282ZM290.171 148.737L252.532 170.415V213.75L290.171 235.428L327.811 213.75V170.415L290.171 148.737ZM252.532 449.993L290.171 428.315L327.811 449.993V493.328L290.171 515.006L252.532 493.328V449.993ZM88.032 28.1941L125.672 6.51606L163.311 28.1941V71.5289L125.672 93.2069L88.032 71.5289V28.1941ZM129.219 99.282L166.859 77.604L204.499 99.282V142.617L166.859 164.295L129.219 142.617V99.282ZM43.2498 6.51606L5.61005 28.1941V71.5289L43.2498 93.2069L80.8896 71.5289V28.1941L43.2498 6.51606ZM85.0631 219.967L47.4234 241.645V284.98L85.0631 306.658L122.703 284.98V241.645L85.0631 219.967ZM170.462 170.559L208.101 148.881L245.741 170.559V213.894L208.101 235.572L170.462 213.894V170.559ZM88.032 170.559L125.672 148.881L163.311 170.559V213.894L125.672 235.572L88.032 213.894V170.559ZM166.859 219.967L129.219 241.645V284.98L166.859 306.658L204.499 284.98V241.645L166.859 219.967ZM5.61005 170.559L43.2498 148.881L80.8896 170.559V213.894L43.2498 235.572L5.61005 213.894V170.559ZM44.2433 428.315L6.60355 449.993V493.328L44.2433 515.006L81.8831 493.328V449.993L44.2433 428.315ZM208.782 568.725L171.142 590.403V633.738L208.782 655.416L246.422 633.738V590.403L208.782 568.725ZM171.205 449.993L208.845 428.315L246.484 449.993V493.328L208.845 515.006L171.205 493.328V449.993ZM88.7204 590.403L126.36 568.725L164 590.403V633.738L126.36 655.416L88.7204 633.738V590.403ZM126.032 428.315L88.3918 449.993V493.328L126.032 515.006L163.671 493.328V449.993L126.032 428.315ZM6.29846 590.403L43.9382 568.725L81.578 590.403V633.738L43.9382 655.416L6.29846 633.738V590.403ZM167.289 499.588L129.65 521.266V564.601L167.289 586.279L204.929 564.601V521.266L167.289 499.588ZM47.22 521.266L84.8597 499.588L122.5 521.266V564.601L84.8597 586.279L47.22 564.601V521.266ZM212.017 521.247L249.657 499.569L287.296 521.247V564.582L249.657 586.26L212.017 564.582V521.247Z" fill="url(#paint0_linear_2736_92)"/>
</mask>
<g mask="url(#mask0_2736_92)">
<rect width="289.516" height="674.83" transform="matrix(-1 0 0 1 412.117 -5.69141)" fill="url(#paint1_linear_2736_92)"/>
</g>
<defs>
<linearGradient id="paint0_linear_2736_92" x1="0.610046" y1="330.966" x2="412.117" y2="330.966" gradientUnits="userSpaceOnUse">
<stop stop-color="#219CD6"/>
<stop offset="1" stop-color="#219CD6" stop-opacity="0.3"/>
</linearGradient>
<linearGradient id="paint1_linear_2736_92" x1="301.571" y1="337.415" x2="-9.73696" y2="337.415" gradientUnits="userSpaceOnUse">
<stop stop-color="#219CD6"/>
<stop offset="1" stop-color="#219CD6"/>
</linearGradient>
</defs>
</svg>
