<svg width="151" height="61" viewBox="0 0 151 61" fill="none" xmlns="http://www.w3.org/2000/svg">
<path d="M70.7073 17.52C70.7073 21.8108 68.2537 24.5552 63.1749 24.5552H55.4729C53.5245 24.5552 51.9453 22.9867 51.9453 21.0515V4.03494C51.9453 2.09976 53.5245 0.53125 55.4729 0.53125H61.344C66.0443 0.53125 68.3581 2.65902 68.3581 6.60529C68.3581 8.66454 67.4948 10.209 66.0089 11.2386C68.9808 12.1312 70.7073 14.3627 70.7073 17.52ZM65.4905 17.1423C65.4905 15.5293 64.4539 14.3275 62.3806 14.3275H61.1799C60.2421 14.3275 59.405 13.7423 59.0862 12.8664C58.648 11.659 59.3323 10.3238 60.5796 9.9886C62.1979 9.55342 63.0388 8.98676 63.0388 7.32565C63.0388 6.05529 62.3471 5.26641 60.5852 5.26641H57.0949V19.8182H62.3825C64.4539 19.82 65.4905 18.7219 65.4905 17.1423Z" fill="url(#paint0_linear_2706_885)"/>
<path d="M77.5111 0.839844V4.75278L72.5703 5.95278V0.839844H77.5111Z" fill="url(#paint1_linear_2706_885)"/>
<path d="M150.677 46.1172V50.0283L145.734 51.2301V46.1172H150.677Z" fill="url(#paint2_linear_2706_885)"/>
<path d="M72.5703 8.63154L77.5111 7.42969V24.487H72.5703V8.63154Z" fill="url(#paint3_linear_2706_885)"/>
<path d="M95.5451 12.5449V24.5578H90.6044V13.8837C90.6044 12.306 90.0506 11.4467 88.6001 11.4467C87.5634 11.4467 86.4224 12.0986 85.2142 13.1282V24.5578H80.2734V8.66711L85.2142 7.50045V10.1782C87.1831 8.49674 89.3608 7.33008 91.365 7.33008C94.4395 7.32823 95.5451 9.04303 95.5451 12.5449Z" fill="url(#paint4_linear_2706_885)"/>
<path d="M111.483 12.9224V24.5576H106.542V22.4631L103.674 24.5576H102.395C99.3543 24.5576 97.5234 22.8076 97.5234 20.0613C97.5234 16.8002 99.6657 14.1576 106.542 14.1576C106.437 12.2706 105.298 11.6521 103.087 11.6521C101.739 11.6521 100.253 11.8243 98.905 12.1317V7.90951C100.771 7.53173 102.809 7.32617 104.573 7.32617C108.822 7.32802 111.483 8.94098 111.483 12.9224ZM106.542 17.7613C101.323 17.7613 101.981 21.2279 104.157 21.2279C104.64 21.2279 105.194 21.0557 105.781 20.6446L106.542 20.0946V17.7613Z" fill="url(#paint5_linear_2706_885)"/>
<path d="M123.873 34.5775V29.9442C127.777 29.2238 130.3 27.5072 131.89 25.0702C125.67 23.1831 123.632 17.5887 123.423 12.3369C121.626 12.5425 120.245 13.161 119.035 14.3276V24.5553H114.094V8.6647L119.035 7.49805V11.4443C120.521 8.52767 123.008 7.7036 126.395 7.7036H128.642C127.812 13.0239 128.642 18.7202 133.652 20.7794C134.55 16.9702 134.413 12.3702 133.997 7.7036H138.938C140.977 23.0461 135.138 33.1701 123.873 34.5775Z" fill="url(#paint6_linear_2706_885)"/>
<path d="M71.2175 40.5246C71.2175 47.4227 67.5893 52.5375 60.3664 52.5375H55.0397C53.2107 52.5375 51.7266 51.0653 51.7266 49.2468V31.8024C51.7266 29.9858 53.2088 28.5117 55.0397 28.5117H60.3664C67.5893 28.5117 71.2175 33.6265 71.2175 40.5246ZM65.792 40.5246C65.792 36.6469 63.7187 33.2487 59.5722 33.2487H56.878V47.8005H59.574C63.7187 47.8005 65.792 44.4024 65.792 40.5246Z" fill="url(#paint7_linear_2706_885)"/>
<path d="M88.0642 44.9843H77.6288C78.0446 47.4213 80.1869 48.2454 82.605 48.2454C84.4714 48.2454 86.4756 47.7639 88.0642 47.1472V51.7453C86.7851 52.3638 84.8853 52.912 82.2583 52.912C77.5934 52.912 72.6172 51.0583 72.6172 44.125C72.6172 38.188 76.1764 35.3047 80.5653 35.3047C85.2302 35.3047 88.0642 38.051 88.0642 43.438V44.9843ZM83.1924 41.8954C82.8474 40.5232 81.6374 39.8361 80.4274 39.8361C79.2173 39.8361 78.0092 40.5232 77.6624 41.8954H83.1924Z" fill="url(#paint8_linear_2706_885)"/>
<path d="M106.447 43.9229C106.447 48.5229 104.512 52.5377 99.7446 52.5377H98.501L95.4955 50.3747V52.5377H90.5547V26.9674L95.4955 25.8008V37.0933C96.877 36.0285 98.4674 35.3081 100.196 35.3081C104.478 35.3081 106.447 39.1526 106.447 43.9229ZM98.0852 49.1729C99.6402 49.1729 101.264 47.9025 101.264 44.1285C101.264 40.5933 99.5357 38.9451 97.4979 38.9451C96.8416 38.9451 96.1499 39.1174 95.4936 39.46V47.971L96.3923 48.6229C96.8752 48.9673 97.4625 49.1729 98.0852 49.1729Z" fill="url(#paint9_linear_2706_885)"/>
<path d="M144.397 54.799C141.252 58.8138 136.794 60.4619 132.476 60.4619C125.495 60.4619 118.895 56.1712 118.895 50.749V50.062C116.926 51.7435 114.749 52.9101 112.744 52.9101C109.67 52.9101 108.562 51.1935 108.562 47.6935V36.6417L113.503 35.4751V46.3546C113.503 47.9342 114.091 48.7916 115.508 48.7916C116.58 48.7916 117.685 48.1398 118.893 47.1102V36.6417L123.834 35.4751V49.0657C123.834 52.6342 127.6 55.9638 132.403 55.9638C135.375 55.9638 138.761 54.6601 141.871 51.399L144.397 54.799ZM125.736 44.125C125.736 39.251 128.846 35.3047 133.891 35.3047H141.77L143.499 39.6287H140.077C141.425 40.5898 142.082 42.375 142.082 44.125C142.082 48.9639 138.972 52.912 133.893 52.912C128.848 52.912 125.736 48.9639 125.736 44.125ZM130.781 44.125C130.781 46.0805 131.611 48.175 133.891 48.175C136.207 48.175 137.035 46.0805 137.035 44.125C137.035 42.1343 136.205 40.0398 133.891 40.0398C131.611 40.0398 130.781 42.1343 130.781 44.125Z" fill="url(#paint10_linear_2706_885)"/>
<path d="M33.9324 11.0758C35.2058 11.1647 36.4662 11.1739 37.7041 11.3499C43.6424 12.1887 48.0612 17.4832 47.7442 23.3239C47.4049 29.5886 42.5946 34.3923 36.4475 34.6645C35.3046 34.7145 34.5476 34.3571 34.0647 33.3201C33.7291 32.5979 33.2686 31.9349 32.92 31.2183C32.3756 30.1053 32.9162 29.1275 34.1524 29.0035C34.8348 28.9349 35.5283 28.9905 36.2144 28.9627C39.5947 28.8238 42.1565 26.1127 42.08 22.7646C42.0036 19.4924 39.3542 16.8943 36.015 16.8776C31.503 16.8535 26.991 16.8646 22.4791 16.8702C20.7022 16.8721 20.2156 17.7183 21.1105 19.2628C26.8717 29.1924 32.5937 39.146 38.4369 49.0274C39.8259 51.3755 39.4772 52.5811 36.3841 52.5293C28.3949 52.3959 20.4021 52.4978 12.411 52.483C5.85562 52.47 0.640753 47.1497 0.679907 40.5478C0.717196 34.1294 5.88172 28.9905 12.3607 28.9349C14.0424 28.9201 15.726 28.9423 17.4077 28.9349C19.1119 28.9275 19.619 28.0738 18.7707 26.6109C14.2923 18.8832 9.80079 11.1628 5.32611 3.43324C5.06509 2.9814 4.77797 2.48325 4.72576 1.9851C4.63067 1.05918 5.44917 0.462891 6.72259 0.462891C10.3545 0.466594 13.9865 0.498076 17.6184 0.509187C20.1802 0.516594 22.7419 0.503633 25.3037 0.51104C31.2755 0.529559 34.8776 4.7425 33.9342 10.5943C33.9119 10.7388 33.9324 10.8869 33.9324 11.0758ZM19.9192 46.7237C19.9192 46.733 19.9192 46.7422 19.9192 46.7534C22.5182 46.7534 25.1191 46.7663 27.7182 46.7497C29.467 46.7385 29.9648 45.9256 29.1146 44.4441C27.4329 41.5108 25.7101 38.5979 24.0303 35.6627C23.622 34.9497 23.0757 34.6719 22.2572 34.6775C18.9702 34.7053 15.6813 34.6701 12.3942 34.696C9.04383 34.7219 6.44851 37.2534 6.40563 40.4904C6.36088 43.9015 8.87043 46.6256 12.2358 46.7108C14.7957 46.7756 17.3593 46.7237 19.9192 46.7237ZM21.0248 6.18878C19.343 6.18878 17.6594 6.16471 15.9777 6.19619C14.6595 6.22212 14.1412 7.11471 14.7472 8.27951C15.0977 8.95358 15.5247 9.58691 15.877 10.2591C16.2406 10.9536 16.7888 11.1888 17.5588 11.1813C20.2734 11.1536 22.988 11.1832 25.7027 11.1647C27.3881 11.1536 28.5143 10.1073 28.4788 8.63877C28.4453 7.20545 27.3378 6.20545 25.7269 6.18878C24.1608 6.17397 22.5928 6.18693 21.0248 6.18878Z" fill="url(#paint11_linear_2706_885)"/>
<defs>
<linearGradient id="paint0_linear_2706_885" x1="61.3263" y1="0.53125" x2="61.3263" y2="34.1373" gradientUnits="userSpaceOnUse">
<stop stop-color="#219CD6"/>
<stop offset="1" stop-color="#999999"/>
</linearGradient>
<linearGradient id="paint1_linear_2706_885" x1="75.0407" y1="0.839844" x2="75.0407" y2="7.99211" gradientUnits="userSpaceOnUse">
<stop stop-color="#219CD6"/>
<stop offset="1" stop-color="#999999"/>
</linearGradient>
<linearGradient id="paint2_linear_2706_885" x1="148.206" y1="46.1172" x2="148.206" y2="53.2694" gradientUnits="userSpaceOnUse">
<stop stop-color="#219CD6"/>
<stop offset="1" stop-color="#999999"/>
</linearGradient>
<linearGradient id="paint3_linear_2706_885" x1="75.0407" y1="7.42969" x2="75.0407" y2="31.2904" gradientUnits="userSpaceOnUse">
<stop stop-color="#219CD6"/>
<stop offset="1" stop-color="#999999"/>
</linearGradient>
<linearGradient id="paint4_linear_2706_885" x1="87.9093" y1="7.33008" x2="87.9093" y2="31.4291" gradientUnits="userSpaceOnUse">
<stop stop-color="#219CD6"/>
<stop offset="1" stop-color="#999999"/>
</linearGradient>
<linearGradient id="paint5_linear_2706_885" x1="104.503" y1="7.32617" x2="104.503" y2="31.4304" gradientUnits="userSpaceOnUse">
<stop stop-color="#219CD6"/>
<stop offset="1" stop-color="#999999"/>
</linearGradient>
<linearGradient id="paint6_linear_2706_885" x1="126.716" y1="7.49805" x2="126.716" y2="45.3784" gradientUnits="userSpaceOnUse">
<stop stop-color="#219CD6"/>
<stop offset="1" stop-color="#999999"/>
</linearGradient>
<linearGradient id="paint7_linear_2706_885" x1="61.472" y1="28.5117" x2="61.472" y2="62.1204" gradientUnits="userSpaceOnUse">
<stop stop-color="#219CD6"/>
<stop offset="1" stop-color="#999999"/>
</linearGradient>
<linearGradient id="paint8_linear_2706_885" x1="80.3407" y1="35.3047" x2="80.3407" y2="59.9348" gradientUnits="userSpaceOnUse">
<stop stop-color="#219CD6"/>
<stop offset="1" stop-color="#999999"/>
</linearGradient>
<linearGradient id="paint9_linear_2706_885" x1="98.501" y1="25.8008" x2="98.501" y2="63.2019" gradientUnits="userSpaceOnUse">
<stop stop-color="#219CD6"/>
<stop offset="1" stop-color="#999999"/>
</linearGradient>
<linearGradient id="paint10_linear_2706_885" x1="126.48" y1="35.3047" x2="126.48" y2="70.4961" gradientUnits="userSpaceOnUse">
<stop stop-color="#219CD6"/>
<stop offset="1" stop-color="#999999"/>
</linearGradient>
<linearGradient id="paint11_linear_2706_885" x1="24.22" y1="0.462891" x2="24.22" y2="65.4408" gradientUnits="userSpaceOnUse">
<stop stop-color="#219CD6"/>
<stop offset="1" stop-color="#859598"/>
</linearGradient>
</defs>
</svg>
