<svg width="26" height="26" viewBox="0 0 26 26" fill="none" xmlns="http://www.w3.org/2000/svg">
<path fill-rule="evenodd" clip-rule="evenodd" d="M0.84375 2.65402C0.84375 1.26543 1.96558 0.144531 3.35156 0.144531H23.4141C24.8 0.144531 25.9219 1.26543 25.9219 2.65402V17.7009C25.9219 19.0878 24.8 20.2087 23.4141 20.2087H13.662L7.19687 25.0554C7.07268 25.1486 6.925 25.2053 6.77038 25.2193C6.61577 25.2332 6.46032 25.2038 6.32147 25.1343C6.18262 25.0649 6.06584 24.9581 5.98422 24.8259C5.90261 24.6938 5.85937 24.5415 5.85938 24.3862V20.207H3.35156C1.96558 20.207 0.84375 19.0861 0.84375 17.6975V2.65402ZM7.53125 6.83147H19.2344V8.50446H7.53125V6.83147ZM7.53125 11.8471H15.8906V13.5201H7.53125V11.8471Z" fill="white"/>
</svg>
